<svg id="svg" version="1.1" xmlns="http://www.w3.org/2000/svg" xmlns:xlink="http://www.w3.org/1999/xlink" width="400" height="400" viewBox="0, 0, 400,400"><g id="svgg"><path id="path0" d="M35.600 29.000 C 35.600 49.614,35.474 58.000,35.165 58.000 C 34.926 58.000,27.013 54.130,17.582 49.400 C 8.150 44.670,0.335 40.800,0.216 40.800 C 0.097 40.800,0.000 46.623,0.000 53.739 L 0.000 66.679 1.600 67.400 C 2.480 67.797,3.200 68.274,3.200 68.461 C 3.200 68.647,2.480 68.800,1.600 68.800 L 0.000 68.800 0.000 75.003 L 0.000 81.206 23.900 81.103 L 47.800 81.000 47.902 40.500 L 48.004 0.000 41.802 0.000 L 35.600 0.000 35.600 29.000 M85.600 40.601 L 85.600 81.202 175.900 81.101 L 266.200 81.000 266.200 75.000 L 266.200 69.000 224.300 68.898 C 201.255 68.842,182.400 68.662,182.400 68.498 C 182.401 68.334,201.301 58.752,224.400 47.204 L 266.400 26.209 266.400 13.571 C 266.400 6.620,266.292 0.826,266.161 0.694 C 266.029 0.563,235.163 15.833,197.568 34.628 L 129.215 68.800 115.807 68.800 C 108.433 68.800,102.400 68.664,102.400 68.498 C 102.400 68.332,132.834 52.987,170.031 34.398 C 207.229 15.809,237.749 0.465,237.855 0.300 C 237.961 0.135,232.562 -0.000,225.857 -0.000 C 219.119 -0.000,213.607 0.159,213.533 0.355 C 213.299 0.979,98.727 58.058,98.152 57.837 C 97.690 57.660,97.600 52.938,97.600 28.813 L 97.600 0.000 91.600 0.000 L 85.600 0.000 85.600 40.601 M0.000 126.020 C 0.000 129.995,0.135 133.176,0.300 133.090 C 3.980 131.160,3.606 131.200,17.796 131.200 C 25.168 131.200,31.200 131.337,31.200 131.504 C 31.200 131.671,24.180 135.315,15.600 139.600 L -0.000 147.392 -0.000 153.296 C -0.000 156.543,0.091 159.200,0.202 159.200 C 0.313 159.200,8.152 155.325,17.622 150.589 C 27.092 145.853,35.011 142.083,35.220 142.213 C 35.454 142.357,35.600 153.407,35.600 170.981 C 35.600 196.631,35.664 199.539,36.233 199.757 C 37.169 200.116,46.917 200.040,47.502 199.669 C 47.900 199.416,47.983 191.051,47.902 159.175 L 47.800 119.000 23.900 118.897 L 0.000 118.794 0.000 126.020 M85.785 119.299 C 85.680 119.575,85.640 137.800,85.697 159.800 L 85.800 199.800 91.600 199.800 L 97.400 199.800 97.503 171.217 C 97.564 154.067,97.756 142.484,97.981 142.259 C 98.216 142.024,120.221 152.813,156.484 170.941 L 214.611 200.000 239.682 200.000 C 253.471 200.000,264.842 199.856,264.951 199.679 C 265.060 199.503,234.831 184.203,197.775 165.679 C 160.719 147.155,130.400 131.819,130.400 131.599 C 130.400 131.342,135.117 131.200,143.700 131.200 L 157.000 131.199 211.413 158.400 C 241.340 173.360,265.960 185.600,266.124 185.600 C 266.287 185.600,266.372 182.945,266.311 179.700 L 266.200 173.800 224.300 152.803 C 201.255 141.255,182.400 131.671,182.400 131.505 C 182.400 131.339,201.255 131.158,224.300 131.102 L 266.200 131.000 266.200 125.000 L 266.200 119.000 176.088 118.899 C 104.208 118.819,85.937 118.900,85.785 119.299 M364.815 152.900 C 362.260 160.865,361.535 162.969,361.229 163.305 C 360.970 163.588,359.278 163.030,351.000 159.929 C 345.741 157.959,345.566 157.901,345.394 158.073 C 345.303 158.164,347.201 161.200,349.614 164.819 C 352.026 168.439,353.999 171.670,354.000 172.000 C 354.000 172.353,351.115 174.312,347.007 176.750 C 343.161 179.033,340.095 181.030,340.193 181.189 C 340.291 181.348,342.223 181.606,344.486 181.763 C 358.155 182.708,357.107 182.278,356.451 186.678 C 356.196 188.395,355.792 191.240,355.554 193.000 C 355.316 194.760,354.983 196.958,354.813 197.885 C 354.643 198.812,354.579 199.645,354.671 199.738 C 354.833 199.900,360.870 193.785,364.383 189.900 C 366.683 187.357,366.367 187.206,372.745 193.884 C 375.836 197.120,378.440 199.685,378.531 199.584 C 378.694 199.402,378.474 197.470,377.622 191.600 C 377.382 189.950,377.074 187.308,376.938 185.729 L 376.689 182.857 378.044 182.661 C 380.529 182.302,389.373 181.593,391.333 181.597 C 394.591 181.602,393.865 181.018,382.510 174.491 C 378.444 172.154,378.355 172.914,383.626 164.979 C 386.060 161.316,387.971 158.237,387.872 158.139 C 387.693 157.959,386.286 158.435,380.000 160.800 C 372.586 163.589,372.626 163.578,372.155 163.075 C 371.702 162.590,367.200 148.976,367.200 148.088 C 367.200 146.458,366.297 148.280,364.815 152.900 M64.812 246.500 C 63.875 249.415,62.604 253.330,61.987 255.200 C 61.370 257.070,60.111 261.030,59.189 264.000 C 55.117 277.113,55.536 276.378,52.747 275.305 C 49.559 274.079,44.753 272.255,39.800 270.390 C 33.583 268.050,24.110 264.426,21.300 263.313 C 20.146 262.855,21.277 264.723,30.804 279.005 L 40.807 294.003 39.304 295.034 C 38.477 295.601,34.740 297.867,31.000 300.069 C 15.694 309.081,9.274 312.996,9.419 313.230 C 9.503 313.367,11.423 313.596,13.686 313.741 C 15.949 313.886,19.690 314.176,22.000 314.385 C 27.050 314.842,34.540 315.493,40.783 316.019 C 46.735 316.520,46.324 315.171,44.430 328.000 C 44.219 329.430,43.847 332.130,43.604 334.000 C 43.361 335.870,42.997 338.480,42.796 339.800 C 42.595 341.120,42.228 343.820,41.981 345.800 C 41.733 347.780,41.388 350.168,41.213 351.106 C 40.806 353.288,41.246 353.538,42.616 351.901 C 43.215 351.185,47.056 347.090,51.152 342.800 C 55.248 338.510,60.219 333.270,62.200 331.155 C 66.846 326.193,66.546 326.282,69.196 329.077 C 90.268 351.303,92.111 353.223,92.242 353.091 C 92.370 352.964,92.003 350.061,90.387 338.400 C 90.189 336.970,89.828 334.360,89.586 332.600 C 89.344 330.840,88.977 328.230,88.771 326.800 C 87.148 315.557,86.793 316.477,92.942 315.978 C 97.916 315.574,104.272 315.027,111.400 314.389 C 113.820 314.172,117.561 313.880,119.713 313.739 C 124.895 313.399,124.900 313.413,118.100 309.373 C 114.855 307.445,110.490 304.848,108.400 303.600 C 106.310 302.352,101.945 299.754,98.700 297.827 C 95.455 295.899,92.800 294.157,92.800 293.957 C 92.800 293.756,97.313 286.827,102.828 278.558 C 108.344 270.289,112.788 263.454,112.703 263.370 C 112.546 263.213,109.093 264.423,105.200 266.000 C 103.990 266.490,102.550 267.035,102.000 267.211 C 101.450 267.387,98.570 268.465,95.600 269.608 C 90.364 271.622,87.221 272.807,81.411 274.960 C 78.135 276.174,78.128 276.170,76.915 272.400 C 76.455 270.970,74.957 266.290,73.587 262.000 C 72.216 257.710,70.219 251.507,69.148 248.216 C 68.076 244.924,67.200 241.999,67.200 241.716 C 67.200 240.060,66.306 241.851,64.812 246.500 " stroke="none" fill="#fbf8f9" fill-rule="evenodd"></path><path id="path1" d="M47.902 40.500 L 47.800 81.000 23.900 81.103 L -0.000 81.206 0.000 100.000 L 0.000 118.794 23.900 118.897 L 47.800 119.000 47.902 159.504 L 48.004 200.008 66.702 199.904 L 85.400 199.800 85.502 159.300 L 85.604 118.800 175.959 118.800 C 257.982 118.800,266.337 118.742,266.557 118.167 C 267.054 116.873,266.828 82.188,266.320 81.680 C 265.950 81.310,245.280 81.200,175.720 81.200 L 85.600 81.200 85.600 40.600 L 85.600 0.000 66.802 0.000 L 48.004 0.000 47.902 40.500 M237.855 0.300 C 237.750 0.465,207.230 15.810,170.033 34.400 C 132.836 52.990,102.401 68.335,102.401 68.500 C 102.400 68.665,108.434 68.800,115.808 68.800 L 129.216 68.800 197.308 34.761 C 234.759 16.040,265.571 0.560,265.780 0.361 C 266.007 0.146,260.484 -0.000,252.104 -0.000 C 244.373 -0.000,237.961 0.135,237.855 0.300 M0.000 67.776 C 0.000 68.680,0.165 68.800,1.400 68.800 C 3.534 68.800,3.240 68.291,0.300 66.895 C 0.135 66.817,0.000 67.213,0.000 67.776 M2.100 132.307 L 0.000 133.365 0.000 140.283 C 0.000 144.087,0.095 147.200,0.212 147.200 C 0.849 147.200,30.800 131.914,30.800 131.589 C 30.800 131.344,25.865 131.209,17.500 131.224 L 4.200 131.249 2.100 132.307 M130.400 131.550 C 130.400 132.328,266.055 199.758,266.429 199.167 C 267.162 198.009,266.878 186.878,266.095 186.095 C 265.708 185.708,241.000 173.198,211.189 158.295 L 156.988 131.200 143.694 131.200 C 136.361 131.200,130.400 131.357,130.400 131.550 " stroke="none" fill="#fb0505" fill-rule="evenodd"></path><path id="path2" d="M0.000 20.243 L 0.000 40.487 1.100 40.231 C 1.705 40.091,1.984 40.121,1.719 40.300 C 1.279 40.596,33.780 57.200,34.801 57.200 C 35.063 57.200,35.167 47.370,35.104 28.500 L 35.008 -0.200 34.804 28.240 C 34.601 56.477,34.594 56.679,33.800 56.368 C 33.123 56.104,33.108 56.052,33.700 56.028 C 34.360 56.002,34.400 54.389,34.400 28.000 L 34.400 0.000 17.200 0.000 L 0.000 0.000 0.000 20.243 M98.496 28.500 C 98.433 47.457,98.536 57.200,98.801 57.200 C 99.313 57.200,212.800 0.464,212.800 0.208 C 212.800 0.102,187.240 0.011,156.000 0.004 L 99.200 -0.008 99.200 27.996 C 99.200 54.389,99.240 56.002,99.900 56.028 C 100.492 56.052,100.477 56.104,99.800 56.368 C 99.006 56.679,98.999 56.477,98.796 28.240 L 98.592 -0.200 98.496 28.500 M267.194 12.900 C 267.191 19.995,267.056 26.005,266.894 26.254 C 266.732 26.504,247.970 36.044,225.200 47.454 L 183.800 68.200 225.267 68.400 C 248.073 68.510,266.849 68.715,266.990 68.857 C 267.405 69.271,267.673 112.579,267.322 122.400 L 267.000 131.400 225.400 131.600 L 183.800 131.800 224.285 152.093 C 246.552 163.254,265.002 172.329,265.285 172.259 C 265.568 172.188,265.670 172.205,265.512 172.295 C 265.353 172.385,265.658 172.851,266.189 173.329 L 267.154 174.200 267.430 187.092 C 267.661 197.885,267.616 200.018,267.153 200.190 C 266.420 200.462,212.777 200.661,213.216 200.390 C 213.500 200.215,99.240 142.800,98.608 142.800 C 98.494 142.800,98.400 155.667,98.400 171.392 L 98.400 199.985 97.300 200.292 C 95.908 200.681,36.845 200.701,35.900 200.313 C 35.243 200.043,35.200 198.286,35.200 171.413 C 35.200 152.518,35.064 142.800,34.798 142.800 C 34.577 142.800,26.658 146.670,17.201 151.400 L 0.005 159.999 0.001 280.000 L -0.003 400.000 199.999 400.000 L 400.000 400.000 400.000 200.000 L 400.000 0.000 333.600 0.000 L 267.200 0.000 267.194 12.900 M267.899 19.675 C 267.833 23.264,267.779 20.440,267.778 13.400 C 267.778 6.360,267.833 3.424,267.899 6.875 C 267.966 10.326,267.966 16.086,267.899 19.675 M188.000 67.200 C 188.000 67.420,187.730 67.600,187.400 67.600 C 187.070 67.600,186.800 67.420,186.800 67.200 C 186.800 66.980,187.070 66.800,187.400 66.800 C 187.730 66.800,188.000 66.980,188.000 67.200 M267.897 77.900 C 267.822 79.605,267.761 78.210,267.761 74.800 C 267.761 71.390,267.822 69.995,267.897 71.700 C 267.972 73.405,267.972 76.195,267.897 77.900 M267.897 128.300 C 267.822 130.005,267.761 128.610,267.761 125.200 C 267.761 121.790,267.822 120.395,267.897 122.100 C 267.972 123.805,267.972 126.595,267.897 128.300 M188.200 132.800 C 188.064 133.020,187.704 133.200,187.400 133.200 C 187.096 133.200,186.736 133.020,186.600 132.800 C 186.459 132.572,186.804 132.400,187.400 132.400 C 187.996 132.400,188.341 132.572,188.200 132.800 M34.703 171.500 L 34.606 199.800 34.500 171.900 C 34.417 149.989,34.288 143.999,33.897 143.994 C 33.491 143.989,34.261 143.233,34.700 143.206 C 34.755 143.203,34.756 155.935,34.703 171.500 M99.205 171.616 C 99.197 187.086,99.102 199.831,98.995 199.939 C 98.888 200.046,98.800 187.293,98.800 171.600 C 98.800 155.907,98.895 143.161,99.011 143.277 C 99.126 143.393,99.214 156.145,99.205 171.616 M368.613 151.025 C 369.307 153.211,369.967 154.730,370.080 154.400 C 370.193 154.070,370.228 154.155,370.157 154.588 C 369.923 156.024,370.462 157.526,370.873 156.585 C 371.159 155.932,371.184 155.967,371.023 156.788 C 370.744 158.208,371.226 160.065,371.598 159.005 C 371.760 158.545,371.867 158.995,371.867 160.133 C 371.867 162.936,372.234 163.088,375.829 161.777 C 378.283 160.881,378.760 160.583,378.158 160.319 C 377.598 160.074,377.682 160.042,378.481 160.197 C 379.822 160.456,385.834 158.202,384.593 157.905 C 384.157 157.800,384.430 157.724,385.200 157.735 C 385.970 157.745,387.095 157.610,387.700 157.434 C 389.560 156.892,389.073 158.010,384.400 165.000 C 381.980 168.620,380.000 171.760,380.000 171.977 C 380.000 172.525,381.529 173.291,382.018 172.989 C 382.239 172.852,382.370 172.932,382.310 173.165 C 382.249 173.399,384.630 175.017,387.600 176.761 C 396.498 181.986,396.608 181.686,385.460 182.628 L 377.119 183.333 377.333 184.767 C 377.451 185.555,377.784 188.000,378.074 190.200 C 378.571 193.981,378.611 194.091,378.806 192.200 C 378.920 191.100,379.033 192.585,379.057 195.500 C 379.101 200.747,378.963 201.361,378.004 200.204 C 377.732 199.877,377.345 199.710,377.145 199.834 C 376.944 199.958,376.830 199.821,376.890 199.530 C 376.951 199.238,376.775 199.045,376.500 199.100 C 376.225 199.155,376.045 198.975,376.100 198.700 C 376.155 198.425,375.975 198.245,375.700 198.300 C 375.425 198.355,375.245 198.175,375.300 197.900 C 375.355 197.625,375.175 197.445,374.900 197.500 C 374.625 197.555,374.445 197.375,374.500 197.100 C 374.555 196.825,374.362 196.649,374.070 196.710 C 373.778 196.771,373.660 196.626,373.808 196.388 C 373.955 196.149,372.400 194.257,370.335 192.161 L 366.595 188.366 361.471 193.779 C 358.653 196.756,356.463 199.378,356.604 199.606 C 356.744 199.834,356.621 199.970,356.330 199.910 C 356.038 199.849,355.837 200.000,355.881 200.244 C 355.926 200.489,355.566 200.668,355.081 200.641 C 354.356 200.602,354.218 200.382,354.300 199.397 C 354.354 198.739,354.442 196.130,354.495 193.600 C 354.548 191.062,354.667 189.897,354.762 191.000 C 354.916 192.802,354.999 192.545,355.600 188.400 C 356.431 182.663,356.880 183.023,348.891 183.019 C 345.201 183.017,343.456 182.922,345.000 182.808 L 347.800 182.600 343.914 182.293 C 337.691 181.801,337.625 181.561,342.878 178.531 C 344.696 177.482,345.893 176.550,345.740 176.302 C 345.586 176.053,345.666 175.993,345.933 176.158 C 346.544 176.536,350.073 174.442,349.738 173.900 C 349.586 173.654,349.666 173.594,349.928 173.756 C 350.409 174.053,353.592 172.423,353.597 171.876 C 353.599 171.698,353.392 171.681,353.138 171.838 C 352.856 172.012,352.785 171.948,352.955 171.673 C 353.322 171.080,352.033 169.132,351.494 169.465 C 351.255 169.613,351.195 169.531,351.355 169.273 C 351.722 168.680,350.433 166.732,349.894 167.065 C 349.655 167.213,349.595 167.131,349.755 166.873 C 350.122 166.280,348.833 164.332,348.294 164.665 C 348.055 164.813,347.995 164.731,348.155 164.473 C 348.522 163.880,347.233 161.932,346.694 162.265 C 346.455 162.413,346.395 162.331,346.555 162.073 C 346.922 161.480,345.633 159.532,345.094 159.865 C 344.856 160.012,344.795 159.932,344.952 159.678 C 345.103 159.433,345.003 158.873,344.729 158.434 C 344.133 157.480,344.239 157.349,345.800 157.109 C 346.460 157.007,346.733 157.007,346.407 157.109 C 345.566 157.372,351.451 159.636,352.519 159.461 C 353.003 159.382,353.133 159.402,352.807 159.506 C 351.819 159.820,357.909 162.031,359.119 161.797 C 359.937 161.639,360.012 161.670,359.429 161.924 C 358.618 162.278,359.288 162.800,360.554 162.800 C 361.246 162.800,362.877 157.502,362.608 156.127 C 362.443 155.281,362.473 155.196,362.729 155.785 C 363.178 156.819,363.678 155.123,363.377 153.588 C 363.216 152.767,363.241 152.732,363.527 153.385 C 363.978 154.418,364.479 152.726,364.177 151.188 C 364.021 150.390,364.048 150.348,364.321 150.968 C 364.597 151.596,364.755 151.379,365.191 149.768 C 366.312 145.630,366.979 145.875,368.613 151.025 M267.897 182.500 C 267.821 184.095,267.759 182.790,267.759 179.600 C 267.759 176.410,267.821 175.105,267.897 176.700 C 267.973 178.295,267.973 180.905,267.897 182.500 M389.891 183.092 C 389.061 183.179,387.801 183.177,387.091 183.089 C 386.381 183.000,387.060 182.929,388.600 182.931 C 390.140 182.933,390.721 183.005,389.891 183.092 M355.533 185.300 L 355.466 187.000 355.310 185.521 C 355.158 184.073,355.114 184.039,353.277 183.893 L 351.400 183.744 353.500 183.672 L 355.600 183.600 355.533 185.300 M381.967 183.765 C 381.662 184.065,378.031 184.164,377.746 183.880 C 377.593 183.726,378.517 183.600,379.800 183.600 C 381.083 183.600,382.058 183.674,381.967 183.765 M378.282 187.300 C 378.187 187.795,378.109 187.390,378.109 186.400 C 378.109 185.410,378.187 185.005,378.282 185.500 C 378.378 185.995,378.378 186.805,378.282 187.300 M353.887 197.495 C 353.795 198.103,353.717 197.700,353.714 196.600 C 353.711 195.500,353.787 195.003,353.882 195.495 C 353.977 195.986,353.979 196.886,353.887 197.495 M379.882 198.900 C 379.787 199.395,379.709 198.990,379.709 198.000 C 379.709 197.010,379.787 196.605,379.882 197.100 C 379.978 197.595,379.978 198.405,379.882 198.900 M67.816 242.024 C 68.118 242.905,68.359 243.184,68.486 242.800 C 68.596 242.470,68.621 242.560,68.543 243.000 C 68.304 244.348,70.495 251.034,70.886 250.148 C 71.144 249.565,71.174 249.617,71.023 250.388 C 70.721 251.926,71.222 253.618,71.673 252.585 C 71.959 251.932,71.984 251.967,71.823 252.788 C 71.522 254.323,72.022 256.019,72.471 254.985 C 72.728 254.394,72.758 254.478,72.593 255.323 C 72.295 256.848,73.637 261.160,74.089 260.133 C 74.330 259.586,74.364 259.658,74.221 260.412 C 73.926 261.967,74.423 263.611,74.875 262.579 C 75.156 261.938,75.182 261.976,75.023 262.788 C 74.722 264.323,75.222 266.019,75.671 264.985 C 75.934 264.380,75.964 264.450,75.801 265.291 C 75.571 266.475,78.194 275.200,78.779 275.200 C 80.125 275.200,86.031 272.614,85.358 272.319 C 84.798 272.074,84.882 272.042,85.681 272.197 C 86.891 272.431,92.981 270.220,91.993 269.906 C 91.667 269.802,91.791 269.780,92.268 269.858 C 93.565 270.069,94.616 269.595,93.934 269.107 C 93.549 268.831,93.615 268.795,94.171 268.977 C 95.323 269.354,101.153 267.155,100.158 266.719 C 99.592 266.472,99.671 266.440,100.468 266.593 C 101.903 266.870,103.075 266.438,102.334 265.907 C 101.949 265.631,102.015 265.595,102.571 265.777 C 103.723 266.154,109.553 263.955,108.558 263.519 C 108.005 263.277,108.096 263.245,108.897 263.401 C 109.500 263.518,110.647 263.341,111.445 263.007 C 113.436 262.175,113.626 262.227,113.523 263.572 C 113.474 264.217,113.311 264.669,113.161 264.576 C 112.724 264.306,111.538 266.376,111.845 266.873 C 112.005 267.131,111.945 267.213,111.706 267.065 C 111.167 266.732,109.878 268.680,110.245 269.273 C 110.405 269.531,110.345 269.613,110.106 269.465 C 109.567 269.132,108.278 271.080,108.645 271.673 C 108.805 271.931,108.745 272.013,108.506 271.865 C 107.967 271.532,106.678 273.480,107.045 274.073 C 107.205 274.331,107.145 274.413,106.906 274.265 C 106.367 273.932,105.078 275.880,105.445 276.473 C 105.605 276.731,105.545 276.813,105.306 276.665 C 104.767 276.332,103.478 278.280,103.845 278.873 C 104.005 279.131,103.945 279.213,103.706 279.065 C 103.167 278.732,101.878 280.680,102.245 281.273 C 102.405 281.531,102.345 281.613,102.106 281.465 C 101.567 281.132,100.278 283.080,100.645 283.673 C 100.805 283.931,100.745 284.013,100.506 283.865 C 99.967 283.532,98.678 285.480,99.045 286.073 C 99.205 286.331,99.145 286.413,98.906 286.265 C 98.367 285.932,97.078 287.880,97.445 288.473 C 97.605 288.731,97.545 288.813,97.306 288.665 C 96.767 288.332,95.478 290.280,95.845 290.873 C 96.006 291.133,95.945 291.213,95.701 291.062 C 95.324 290.830,93.600 293.194,93.600 293.943 C 93.600 294.484,99.784 297.802,100.600 297.699 C 101.122 297.633,101.229 297.709,100.907 297.918 C 100.278 298.327,105.427 301.354,106.073 300.955 C 106.334 300.794,106.413 300.855,106.262 301.100 C 105.927 301.642,109.456 303.736,110.067 303.358 C 110.332 303.195,110.414 303.253,110.264 303.497 C 109.905 304.077,117.440 308.424,118.317 308.143 C 118.789 307.992,118.848 308.035,118.506 308.282 C 118.162 308.531,119.102 309.296,121.606 310.804 C 126.427 313.706,126.388 313.795,120.086 314.293 L 116.200 314.600 119.000 314.831 C 120.932 314.990,120.126 315.052,116.400 315.031 C 109.228 314.990,96.417 316.101,100.600 316.401 C 102.140 316.512,100.109 316.617,96.086 316.635 C 87.512 316.673,87.914 316.450,88.576 320.800 C 89.035 323.824,89.115 324.023,89.294 322.600 C 89.405 321.720,89.431 322.041,89.353 323.314 C 89.274 324.587,89.644 328.727,90.175 332.514 C 90.706 336.301,91.559 342.460,92.070 346.200 C 92.847 351.881,93.039 352.704,93.240 351.200 L 93.480 349.400 93.527 351.000 C 93.645 354.987,92.829 354.723,87.365 349.000 C 84.634 346.140,82.219 343.845,82.000 343.900 C 81.780 343.955,81.645 343.775,81.700 343.500 C 81.755 343.225,81.575 343.045,81.300 343.100 C 81.025 343.155,80.845 342.975,80.900 342.700 C 80.955 342.425,80.775 342.245,80.500 342.300 C 80.225 342.355,80.045 342.175,80.100 341.900 C 80.155 341.625,79.975 341.445,79.700 341.500 C 79.425 341.555,79.245 341.375,79.300 341.100 C 79.355 340.825,79.162 340.649,78.870 340.710 C 78.579 340.770,78.451 340.641,78.587 340.421 C 78.894 339.924,67.192 327.530,66.618 327.744 C 66.388 327.830,66.245 328.103,66.300 328.350 C 66.355 328.598,66.175 328.755,65.900 328.700 C 65.625 328.645,65.445 328.825,65.500 329.100 C 65.555 329.375,65.375 329.555,65.100 329.500 C 64.825 329.445,64.645 329.625,64.700 329.900 C 64.755 330.175,64.575 330.355,64.300 330.300 C 64.025 330.245,63.845 330.425,63.900 330.700 C 63.955 330.975,63.775 331.155,63.500 331.100 C 63.225 331.045,63.045 331.225,63.100 331.500 C 63.155 331.775,62.975 331.955,62.700 331.900 C 62.425 331.845,62.245 332.025,62.300 332.300 C 62.355 332.575,62.231 332.755,62.025 332.700 C 61.456 332.548,51.530 343.164,51.813 343.621 C 51.949 343.840,51.821 343.970,51.530 343.910 C 51.238 343.849,51.045 344.025,51.100 344.300 C 51.155 344.575,50.975 344.755,50.700 344.700 C 50.425 344.645,50.245 344.825,50.300 345.100 C 50.355 345.375,50.175 345.555,49.900 345.500 C 49.625 345.445,49.445 345.625,49.500 345.900 C 49.555 346.175,49.375 346.355,49.100 346.300 C 48.825 346.245,48.645 346.425,48.700 346.700 C 48.755 346.975,48.575 347.155,48.300 347.100 C 48.025 347.045,47.845 347.225,47.900 347.500 C 47.955 347.775,47.775 347.955,47.500 347.900 C 47.225 347.845,47.049 348.038,47.110 348.330 C 47.170 348.621,47.051 348.755,46.845 348.628 C 46.639 348.500,45.291 349.700,43.851 351.294 C 40.857 354.607,40.484 354.575,40.248 350.982 C 40.143 349.382,40.175 349.125,40.346 350.200 C 40.709 352.486,43.413 332.940,43.362 328.400 C 43.335 326.017,43.396 325.539,43.567 326.800 L 43.812 328.600 44.089 326.482 C 44.242 325.317,44.305 323.247,44.230 321.882 C 44.120 319.896,44.145 319.760,44.355 321.200 L 44.616 323.000 44.945 320.256 C 45.125 318.748,45.122 317.382,44.936 317.223 C 44.751 317.063,36.590 316.255,26.800 315.427 C 6.017 313.670,6.437 313.790,11.412 311.008 C 12.970 310.137,13.908 309.375,13.747 309.114 C 13.586 308.853,13.661 308.790,13.933 308.958 C 14.544 309.336,18.073 307.242,17.738 306.700 C 17.586 306.453,17.667 306.394,17.933 306.558 C 18.544 306.936,22.073 304.842,21.738 304.300 C 21.592 304.064,21.665 303.993,21.902 304.139 C 22.608 304.576,23.783 303.972,23.134 303.507 C 22.737 303.223,22.784 303.184,23.313 303.355 C 24.070 303.599,27.963 301.439,27.349 301.115 C 27.157 301.014,27.217 300.983,27.483 301.046 C 28.178 301.212,35.639 296.787,35.377 296.363 C 35.257 296.169,35.393 296.094,35.679 296.199 C 36.780 296.600,40.064 294.067,39.590 293.182 C 39.354 292.739,38.961 292.500,38.718 292.651 C 38.456 292.813,38.389 292.741,38.555 292.473 C 38.922 291.880,37.633 289.932,37.094 290.265 C 36.855 290.413,36.795 290.331,36.955 290.073 C 37.322 289.480,36.033 287.532,35.494 287.865 C 35.255 288.013,35.195 287.931,35.355 287.673 C 35.722 287.080,34.433 285.132,33.894 285.465 C 33.655 285.613,33.595 285.531,33.755 285.273 C 34.122 284.680,32.833 282.732,32.294 283.065 C 32.055 283.213,31.995 283.131,32.155 282.873 C 32.522 282.280,31.233 280.332,30.694 280.665 C 30.455 280.813,30.395 280.731,30.555 280.473 C 30.990 279.769,29.571 277.821,29.101 278.476 C 28.834 278.847,28.798 278.776,28.975 278.234 C 29.290 277.272,26.590 273.036,25.924 273.447 C 25.646 273.619,25.589 273.542,25.773 273.244 C 26.236 272.495,24.817 270.547,24.318 271.247 C 24.021 271.664,23.985 271.614,24.171 271.044 C 24.471 270.127,23.342 268.265,22.721 268.649 C 22.443 268.820,22.390 268.740,22.578 268.436 C 22.755 268.150,22.284 267.053,21.440 265.780 C 18.973 262.065,19.172 261.914,24.051 263.799 C 26.333 264.679,28.066 265.121,28.736 264.992 C 29.533 264.839,29.610 264.871,29.042 265.119 C 28.047 265.555,33.877 267.754,35.029 267.377 C 35.585 267.195,35.651 267.231,35.266 267.507 C 34.584 267.995,35.635 268.469,36.932 268.258 C 37.409 268.180,37.533 268.202,37.207 268.306 C 36.219 268.620,42.309 270.831,43.519 270.597 C 44.288 270.448,44.387 270.481,43.862 270.712 C 42.844 271.160,50.577 274.085,52.000 273.791 C 52.722 273.641,52.799 273.673,52.280 273.904 C 51.676 274.173,51.790 274.308,52.977 274.737 C 53.757 275.019,54.562 275.147,54.765 275.022 C 55.428 274.612,59.359 261.858,59.333 260.200 C 59.316 259.128,59.401 258.859,59.589 259.385 C 59.974 260.461,60.462 258.639,60.177 257.188 C 60.026 256.417,60.056 256.365,60.314 256.948 C 60.752 257.940,62.890 251.040,62.591 249.600 C 62.422 248.785,62.447 248.745,62.727 249.385 C 63.178 250.418,63.679 248.726,63.377 247.188 C 63.216 246.367,63.241 246.332,63.527 246.985 C 63.978 248.018,64.479 246.326,64.177 244.788 C 64.021 243.990,64.048 243.948,64.321 244.568 C 64.597 245.196,64.755 244.979,65.191 243.368 C 66.094 240.033,66.979 239.580,67.816 242.024 M15.491 315.092 C 14.661 315.179,13.401 315.177,12.691 315.089 C 11.981 315.000,12.660 314.929,14.200 314.931 C 15.740 314.933,16.321 315.005,15.491 315.092 M24.691 315.892 C 23.861 315.979,22.601 315.977,21.891 315.889 C 21.181 315.800,21.860 315.729,23.400 315.731 C 24.940 315.733,25.521 315.805,24.691 315.892 M111.091 315.892 C 110.261 315.979,109.001 315.977,108.291 315.889 C 107.581 315.800,108.260 315.729,109.800 315.731 C 111.340 315.733,111.921 315.805,111.091 315.892 M33.891 316.692 C 33.061 316.779,31.801 316.777,31.091 316.689 C 30.381 316.600,31.060 316.529,32.600 316.531 C 34.140 316.533,34.721 316.605,33.891 316.692 M43.500 317.491 C 42.675 317.578,41.325 317.578,40.500 317.491 C 39.675 317.405,40.350 317.334,42.000 317.334 C 43.650 317.334,44.325 317.405,43.500 317.491 M93.400 317.439 C 91.553 317.739,88.400 317.778,88.400 317.500 C 88.400 317.335,89.705 317.225,91.300 317.254 C 92.895 317.284,93.840 317.367,93.400 317.439 M90.282 328.900 C 90.187 329.395,90.109 328.990,90.109 328.000 C 90.109 327.010,90.187 326.605,90.282 327.100 C 90.378 327.595,90.378 328.405,90.282 328.900 M42.682 333.300 C 42.587 333.795,42.509 333.390,42.509 332.400 C 42.509 331.410,42.587 331.005,42.682 331.500 C 42.778 331.995,42.778 332.805,42.682 333.300 M91.082 334.500 C 90.987 334.995,90.909 334.590,90.909 333.600 C 90.909 332.610,90.987 332.205,91.082 332.700 C 91.178 333.195,91.178 334.005,91.082 334.500 M41.887 339.095 C 41.795 339.703,41.717 339.300,41.714 338.200 C 41.711 337.100,41.787 336.603,41.882 337.095 C 41.977 337.586,41.979 338.486,41.887 339.095 M91.882 340.500 C 91.787 340.995,91.709 340.590,91.709 339.600 C 91.709 338.610,91.787 338.205,91.882 338.700 C 91.978 339.195,91.978 340.005,91.882 340.500 M41.082 344.900 C 40.987 345.395,40.909 344.990,40.909 344.000 C 40.909 343.010,40.987 342.605,41.082 343.100 C 41.178 343.595,41.178 344.405,41.082 344.900 M92.682 346.100 C 92.587 346.595,92.509 346.190,92.509 345.200 C 92.509 344.210,92.587 343.805,92.682 344.300 C 92.778 344.795,92.778 345.605,92.682 346.100 " stroke="none" fill="#04048c" fill-rule="evenodd"></path><path id="path3" d="M34.400 27.971 C 34.400 54.287,34.359 55.950,33.700 56.087 C 33.131 56.205,33.168 56.278,33.900 56.479 L 34.800 56.725 34.800 28.363 C 34.800 12.763,34.710 0.000,34.600 0.000 C 34.490 0.000,34.400 12.587,34.400 27.971 M98.897 28.263 L 98.800 56.725 99.700 56.479 C 100.428 56.279,100.467 56.205,99.903 56.087 C 99.249 55.951,99.199 54.193,99.100 27.871 L 98.995 -0.200 98.897 28.263 M267.778 13.400 C 267.779 20.440,267.833 23.264,267.899 19.675 C 267.966 16.086,267.966 10.326,267.899 6.875 C 267.833 3.424,267.778 6.360,267.778 13.400 M186.800 67.200 C 186.800 67.420,187.070 67.600,187.400 67.600 C 187.730 67.600,188.000 67.420,188.000 67.200 C 188.000 66.980,187.730 66.800,187.400 66.800 C 187.070 66.800,186.800 66.980,186.800 67.200 M267.761 74.800 C 267.761 78.210,267.822 79.605,267.897 77.900 C 267.972 76.195,267.972 73.405,267.897 71.700 C 267.822 69.995,267.761 71.390,267.761 74.800 M266.796 81.320 C 266.654 90.943,266.873 118.429,267.092 118.500 C 267.572 118.656,267.684 81.924,267.204 81.444 C 266.982 81.222,266.798 81.166,266.796 81.320 M267.761 125.200 C 267.761 128.610,267.822 130.005,267.897 128.300 C 267.972 126.595,267.972 123.805,267.897 122.100 C 267.822 120.395,267.761 121.790,267.761 125.200 M186.600 132.800 C 186.736 133.020,187.096 133.200,187.400 133.200 C 187.704 133.200,188.064 133.020,188.200 132.800 C 188.341 132.572,187.996 132.400,187.400 132.400 C 186.804 132.400,186.459 132.572,186.600 132.800 M34.000 143.600 C 33.604 143.856,33.569 143.990,33.897 143.994 C 34.288 143.999,34.417 149.989,34.500 171.900 L 34.606 199.800 34.703 171.500 C 34.756 155.935,34.755 143.203,34.700 143.206 C 34.645 143.209,34.330 143.387,34.000 143.600 M98.800 171.600 C 98.800 187.293,98.888 200.046,98.995 199.939 C 99.260 199.674,99.276 143.542,99.011 143.277 C 98.895 143.161,98.800 155.907,98.800 171.600 M267.759 179.600 C 267.759 182.790,267.821 184.095,267.897 182.500 C 267.973 180.905,267.973 178.295,267.897 176.700 C 267.821 175.105,267.759 176.410,267.759 179.600 M343.491 183.089 C 344.201 183.177,345.461 183.179,346.291 183.092 C 347.121 183.005,346.540 182.933,345.000 182.931 C 343.460 182.929,342.781 183.000,343.491 183.089 M387.091 183.089 C 387.801 183.177,389.061 183.179,389.891 183.092 C 390.721 183.005,390.140 182.933,388.600 182.931 C 387.060 182.929,386.381 183.000,387.091 183.089 M353.277 183.893 C 355.114 184.039,355.158 184.073,355.310 185.521 L 355.466 187.000 355.533 185.300 L 355.600 183.600 353.500 183.672 L 351.400 183.744 353.277 183.893 M377.746 183.880 C 378.031 184.164,381.662 184.065,381.967 183.765 C 382.058 183.674,381.083 183.600,379.800 183.600 C 378.517 183.600,377.593 183.726,377.746 183.880 M378.109 186.400 C 378.109 187.390,378.187 187.795,378.282 187.300 C 378.378 186.805,378.378 185.995,378.282 185.500 C 378.187 185.005,378.109 185.410,378.109 186.400 M266.781 186.220 C 266.771 186.429,266.778 189.223,266.798 192.428 C 266.818 195.634,266.646 198.752,266.416 199.358 C 266.053 200.314,266.090 200.441,266.699 200.324 C 267.525 200.166,268.002 187.042,267.210 186.250 C 266.970 186.010,266.792 185.998,266.781 186.220 M354.514 191.000 C 354.517 192.100,354.595 192.503,354.687 191.895 C 354.779 191.286,354.777 190.386,354.682 189.895 C 354.587 189.403,354.511 189.900,354.514 191.000 M378.914 192.200 C 378.917 193.300,378.995 193.703,379.087 193.095 C 379.179 192.486,379.177 191.586,379.082 191.095 C 378.987 190.603,378.911 191.100,378.914 192.200 M353.714 196.600 C 353.717 197.700,353.795 198.103,353.887 197.495 C 353.979 196.886,353.977 195.986,353.882 195.495 C 353.787 195.003,353.711 195.500,353.714 196.600 M379.709 198.000 C 379.709 198.990,379.787 199.395,379.882 198.900 C 379.978 198.405,379.978 197.595,379.882 197.100 C 379.787 196.605,379.709 197.010,379.709 198.000 M48.000 200.400 C 48.000 200.661,54.533 200.800,66.800 200.800 C 79.067 200.800,85.600 200.661,85.600 200.400 C 85.600 200.139,79.067 200.000,66.800 200.000 C 54.533 200.000,48.000 200.139,48.000 200.400 M12.691 315.089 C 13.401 315.177,14.661 315.179,15.491 315.092 C 16.321 315.005,15.740 314.933,14.200 314.931 C 12.660 314.929,11.981 315.000,12.691 315.089 M117.491 315.089 C 118.201 315.177,119.461 315.179,120.291 315.092 C 121.121 315.005,120.540 314.933,119.000 314.931 C 117.460 314.929,116.781 315.000,117.491 315.089 M21.891 315.889 C 22.601 315.977,23.861 315.979,24.691 315.892 C 25.521 315.805,24.940 315.733,23.400 315.731 C 21.860 315.729,21.181 315.800,21.891 315.889 M108.291 315.889 C 109.001 315.977,110.261 315.979,111.091 315.892 C 111.921 315.805,111.340 315.733,109.800 315.731 C 108.260 315.729,107.581 315.800,108.291 315.889 M31.091 316.689 C 31.801 316.777,33.061 316.779,33.891 316.692 C 34.721 316.605,34.140 316.533,32.600 316.531 C 31.060 316.529,30.381 316.600,31.091 316.689 M99.091 316.689 C 99.801 316.777,101.061 316.779,101.891 316.692 C 102.721 316.605,102.140 316.533,100.600 316.531 C 99.060 316.529,98.381 316.600,99.091 316.689 M40.500 317.491 C 41.325 317.578,42.675 317.578,43.500 317.491 C 44.325 317.405,43.650 317.334,42.000 317.334 C 40.350 317.334,39.675 317.405,40.500 317.491 M88.400 317.500 C 88.400 317.665,89.345 317.748,90.500 317.684 C 94.021 317.491,94.354 317.312,91.300 317.254 C 89.705 317.225,88.400 317.335,88.400 317.500 M44.114 321.000 C 44.117 322.100,44.195 322.503,44.287 321.895 C 44.379 321.286,44.377 320.386,44.282 319.895 C 44.187 319.403,44.111 319.900,44.114 321.000 M89.309 322.400 C 89.309 323.390,89.387 323.795,89.482 323.300 C 89.578 322.805,89.578 321.995,89.482 321.500 C 89.387 321.005,89.309 321.410,89.309 322.400 M43.309 326.800 C 43.309 327.790,43.387 328.195,43.482 327.700 C 43.578 327.205,43.578 326.395,43.482 325.900 C 43.387 325.405,43.309 325.810,43.309 326.800 M90.109 328.000 C 90.109 328.990,90.187 329.395,90.282 328.900 C 90.378 328.405,90.378 327.595,90.282 327.100 C 90.187 326.605,90.109 327.010,90.109 328.000 M42.509 332.400 C 42.509 333.390,42.587 333.795,42.682 333.300 C 42.778 332.805,42.778 331.995,42.682 331.500 C 42.587 331.005,42.509 331.410,42.509 332.400 M90.909 333.600 C 90.909 334.590,90.987 334.995,91.082 334.500 C 91.178 334.005,91.178 333.195,91.082 332.700 C 90.987 332.205,90.909 332.610,90.909 333.600 M41.714 338.200 C 41.717 339.300,41.795 339.703,41.887 339.095 C 41.979 338.486,41.977 337.586,41.882 337.095 C 41.787 336.603,41.711 337.100,41.714 338.200 M91.709 339.600 C 91.709 340.590,91.787 340.995,91.882 340.500 C 91.978 340.005,91.978 339.195,91.882 338.700 C 91.787 338.205,91.709 338.610,91.709 339.600 M40.909 344.000 C 40.909 344.990,40.987 345.395,41.082 344.900 C 41.178 344.405,41.178 343.595,41.082 343.100 C 40.987 342.605,40.909 343.010,40.909 344.000 M92.509 345.200 C 92.509 346.190,92.587 346.595,92.682 346.100 C 92.778 345.605,92.778 344.795,92.682 344.300 C 92.587 343.805,92.509 344.210,92.509 345.200 M40.109 350.000 C 40.109 350.990,40.187 351.395,40.282 350.900 C 40.378 350.405,40.378 349.595,40.282 349.100 C 40.187 348.605,40.109 349.010,40.109 350.000 M93.309 351.200 C 93.309 352.190,93.387 352.595,93.482 352.100 C 93.578 351.605,93.578 350.795,93.482 350.300 C 93.387 349.805,93.309 350.210,93.309 351.200 " stroke="none" fill="#040484" fill-rule="evenodd"></path><path id="path4" d="M35.200 28.600 C 35.200 47.488,35.064 57.200,34.798 57.200 C 34.577 57.200,26.820 53.411,17.559 48.780 C 8.299 44.148,0.563 40.413,0.368 40.480 C -0.032 40.616,34.498 58.000,35.168 58.000 C 35.473 58.000,35.600 49.481,35.600 29.000 C 35.600 13.050,35.510 0.000,35.400 0.000 C 35.290 0.000,35.200 12.870,35.200 28.600 M97.600 28.813 C 97.600 52.938,97.690 57.660,98.152 57.837 C 98.568 57.997,212.737 1.334,213.567 0.556 C 214.635 -0.445,205.405 4.086,156.400 28.620 C 125.050 44.315,99.175 57.167,98.900 57.179 C 98.504 57.196,98.400 51.225,98.400 28.600 C 98.400 9.800,98.263 0.000,98.000 0.000 C 97.737 0.000,97.600 9.871,97.600 28.813 M266.314 13.100 L 266.428 26.200 224.415 47.200 C 201.307 58.750,182.401 68.334,182.400 68.498 C 182.400 68.662,201.255 68.842,224.300 68.898 L 266.200 69.000 266.200 75.300 C 266.200 83.741,266.961 83.546,267.110 75.067 C 267.171 71.620,267.171 68.757,267.110 68.705 C 267.050 68.652,248.280 68.517,225.400 68.405 L 183.800 68.200 225.200 47.454 C 247.970 36.044,266.732 26.504,266.894 26.254 C 267.447 25.399,267.259 0.000,266.700 -0.000 C 266.308 -0.000,266.225 2.825,266.314 13.100 M266.385 118.620 C 266.377 118.829,266.332 121.700,266.285 125.000 L 266.200 131.000 224.300 131.102 C 201.255 131.158,182.400 131.339,182.400 131.505 C 182.400 131.671,201.255 141.255,224.300 152.803 L 266.200 173.800 266.270 179.900 C 266.309 183.255,266.489 186.000,266.670 186.001 C 267.239 186.003,267.293 174.394,266.728 173.713 C 266.456 173.386,247.686 163.821,225.017 152.459 L 183.800 131.800 225.400 131.600 L 267.000 131.400 267.111 125.231 C 267.180 121.393,267.066 118.906,266.811 118.651 C 266.571 118.411,266.394 118.399,266.385 118.620 M17.300 150.722 C 7.785 155.492,0.000 159.532,0.000 159.699 C 0.000 159.865,7.739 156.131,17.198 151.401 C 26.657 146.670,34.576 142.800,34.796 142.800 C 35.056 142.800,35.230 152.742,35.297 171.500 L 35.400 200.200 41.700 200.310 C 45.165 200.371,48.000 200.281,48.001 200.110 C 48.001 199.940,45.642 199.860,42.758 199.933 C 39.874 200.006,37.085 199.957,36.560 199.826 L 35.605 199.586 35.503 170.926 C 35.436 152.247,35.261 142.228,35.000 142.157 C 34.780 142.097,26.815 145.951,17.300 150.722 M97.787 142.500 C 97.683 142.775,97.554 155.780,97.499 171.400 L 97.400 199.800 91.338 199.800 C 88.003 199.800,85.359 199.935,85.461 200.100 C 85.682 200.456,96.852 200.508,97.767 200.157 C 98.336 199.939,98.400 197.029,98.400 171.357 C 98.400 155.651,98.494 142.800,98.609 142.800 C 98.724 142.800,124.733 155.760,156.406 171.600 L 213.993 200.400 239.973 200.400 C 263.468 200.400,267.846 200.241,265.811 199.459 C 265.489 199.336,265.119 199.407,264.989 199.617 C 264.843 199.854,255.201 200.000,239.682 200.000 L 214.611 200.000 156.601 171.000 C 95.805 140.607,98.084 141.711,97.787 142.500 M366.133 147.287 C 365.920 147.569,364.686 151.175,363.390 155.300 C 362.095 159.425,360.848 162.799,360.618 162.798 C 360.388 162.797,356.890 161.537,352.844 159.998 C 342.556 156.085,342.856 155.687,349.065 165.004 C 351.630 168.854,353.655 172.067,353.565 172.144 C 353.474 172.221,350.430 174.042,346.800 176.190 C 336.773 182.124,336.701 181.661,347.800 182.612 C 352.200 182.988,355.908 183.410,356.040 183.548 C 356.172 183.687,355.766 187.479,355.136 191.976 C 353.720 202.100,353.688 202.058,358.679 196.760 C 360.835 194.472,363.509 191.635,364.623 190.455 L 366.647 188.311 372.589 194.555 C 375.858 197.990,378.682 200.800,378.866 200.800 C 379.409 200.800,379.258 198.600,378.205 191.196 C 377.658 187.348,377.208 184.003,377.205 183.763 C 377.202 183.483,380.186 183.074,385.500 182.625 C 396.725 181.676,396.656 182.080,386.605 176.182 C 383.088 174.118,380.152 172.255,380.081 172.042 C 380.010 171.829,381.943 168.676,384.376 165.036 C 390.510 155.860,390.731 156.146,380.486 160.011 C 373.295 162.724,372.008 163.012,371.993 161.913 C 371.978 160.872,367.294 147.031,366.914 146.905 C 366.697 146.832,366.346 147.004,366.133 147.287 M367.200 148.088 C 367.200 148.976,371.702 162.590,372.155 163.075 C 372.626 163.578,372.586 163.589,380.000 160.800 C 386.286 158.435,387.693 157.959,387.872 158.139 C 387.971 158.237,386.060 161.316,383.626 164.979 C 378.355 172.914,378.444 172.154,382.510 174.491 C 393.865 181.018,394.591 181.602,391.333 181.597 C 389.373 181.593,380.529 182.302,378.044 182.661 L 376.689 182.857 376.938 185.729 C 377.074 187.308,377.382 189.950,377.622 191.600 C 378.474 197.470,378.694 199.402,378.531 199.584 C 378.440 199.685,375.836 197.120,372.745 193.884 C 366.367 187.206,366.683 187.357,364.383 189.900 C 360.870 193.785,354.833 199.900,354.671 199.738 C 354.579 199.645,354.643 198.812,354.813 197.885 C 354.983 196.958,355.316 194.760,355.554 193.000 C 355.792 191.240,356.196 188.395,356.451 186.678 C 357.107 182.278,358.155 182.708,344.486 181.763 C 342.223 181.606,340.291 181.348,340.193 181.189 C 340.095 181.030,343.161 179.033,347.007 176.750 C 351.115 174.312,354.000 172.353,354.000 172.000 C 353.999 171.670,352.026 168.439,349.614 164.819 C 347.201 161.200,345.303 158.164,345.394 158.073 C 345.566 157.901,345.741 157.959,351.000 159.929 C 359.278 163.030,360.970 163.588,361.229 163.305 C 361.535 162.969,362.260 160.865,364.815 152.900 C 366.297 148.280,367.200 146.458,367.200 148.088 M66.134 240.887 C 65.921 241.169,63.904 247.250,61.650 254.400 C 54.640 276.638,55.076 275.566,53.322 274.870 C 50.229 273.642,20.364 262.400,20.195 262.400 C 19.378 262.400,21.232 265.490,29.986 278.714 C 37.654 290.299,39.859 293.904,39.486 294.248 C 39.219 294.495,32.340 298.618,24.200 303.411 C 8.549 312.627,8.008 312.979,8.617 313.558 C 8.828 313.758,17.010 314.599,26.800 315.427 C 36.590 316.255,44.763 317.075,44.963 317.249 C 45.304 317.547,44.960 320.321,41.548 344.757 C 40.747 350.501,40.486 353.446,40.757 353.717 C 41.169 354.129,42.042 353.256,58.429 336.033 C 62.703 331.541,66.386 327.804,66.614 327.728 C 66.841 327.653,72.664 333.533,79.553 340.795 C 86.443 348.058,92.226 354.000,92.406 354.000 C 93.040 354.000,93.027 353.049,92.327 348.049 C 91.621 343.003,90.752 336.699,89.206 325.400 C 88.754 322.100,88.343 318.869,88.292 318.219 L 88.200 317.038 96.200 316.352 C 126.322 313.769,125.200 313.890,125.200 313.242 C 125.200 312.975,112.091 305.037,98.301 296.954 C 95.717 295.439,93.603 294.020,93.603 293.800 C 93.604 293.580,98.104 286.653,103.602 278.408 C 109.101 270.162,113.600 263.166,113.600 262.861 C 113.600 262.125,114.534 261.807,95.715 268.946 C 86.648 272.386,79.054 275.200,78.840 275.200 C 78.626 275.200,77.103 271.015,75.457 265.900 C 73.811 260.785,71.310 253.010,69.900 248.623 C 67.391 240.815,66.918 239.844,66.134 240.887 M67.200 241.716 C 67.200 241.999,68.076 244.924,69.148 248.216 C 70.219 251.507,72.216 257.710,73.587 262.000 C 74.957 266.290,76.455 270.970,76.915 272.400 C 78.128 276.170,78.135 276.174,81.411 274.960 C 87.221 272.807,90.364 271.622,95.600 269.608 C 98.570 268.465,101.450 267.387,102.000 267.211 C 102.550 267.035,103.990 266.490,105.200 266.000 C 109.093 264.423,112.546 263.213,112.703 263.370 C 112.788 263.454,108.344 270.289,102.828 278.558 C 97.313 286.827,92.800 293.756,92.800 293.957 C 92.800 294.157,95.455 295.899,98.700 297.827 C 101.945 299.754,106.310 302.352,108.400 303.600 C 110.490 304.848,114.855 307.445,118.100 309.373 C 124.900 313.413,124.895 313.399,119.713 313.739 C 117.561 313.880,113.820 314.172,111.400 314.389 C 104.272 315.027,97.916 315.574,92.942 315.978 C 86.793 316.477,87.148 315.557,88.771 326.800 C 88.977 328.230,89.344 330.840,89.586 332.600 C 89.828 334.360,90.189 336.970,90.387 338.400 C 92.003 350.061,92.370 352.964,92.242 353.091 C 92.111 353.223,90.268 351.303,69.196 329.077 C 66.546 326.282,66.846 326.193,62.200 331.155 C 60.219 333.270,55.248 338.510,51.152 342.800 C 47.056 347.090,43.215 351.185,42.616 351.901 C 41.246 353.538,40.806 353.288,41.213 351.106 C 41.388 350.168,41.733 347.780,41.981 345.800 C 42.228 343.820,42.595 341.120,42.796 339.800 C 42.997 338.480,43.361 335.870,43.604 334.000 C 43.847 332.130,44.219 329.430,44.430 328.000 C 46.324 315.171,46.735 316.520,40.783 316.019 C 34.540 315.493,27.050 314.842,22.000 314.385 C 19.690 314.176,15.949 313.886,13.686 313.741 C 11.423 313.596,9.503 313.367,9.419 313.230 C 9.274 312.996,15.694 309.081,31.000 300.069 C 34.740 297.867,38.477 295.601,39.304 295.034 L 40.807 294.003 30.804 279.005 C 21.277 264.723,20.146 262.855,21.300 263.313 C 24.110 264.426,33.583 268.050,39.800 270.390 C 44.753 272.255,49.559 274.079,52.747 275.305 C 55.536 276.378,55.117 277.113,59.189 264.000 C 60.111 261.030,61.370 257.070,61.987 255.200 C 62.604 253.330,63.875 249.415,64.812 246.500 C 66.306 241.851,67.200 240.060,67.200 241.716 " stroke="none" fill="#5858b4" fill-rule="evenodd"></path></g></svg>