<svg id="svg" version="1.1" xmlns="http://www.w3.org/2000/svg" xmlns:xlink="http://www.w3.org/1999/xlink" width="400" height="400" viewBox="0, 0, 400,400"><g id="svgg"><path id="path0" d="M189.400 80.794 C 135.269 85.786,91.177 126.448,82.043 179.800 C 80.780 187.176,80.609 189.580,80.609 200.000 C 80.609 210.460,80.728 212.138,82.056 220.400 C 89.920 269.317,130.291 309.660,179.710 317.983 C 261.325 331.728,331.908 261.154,317.987 179.724 C 307.534 118.580,251.033 75.110,189.400 80.794 " stroke="none" fill="#bc042c" fill-rule="evenodd"></path><path id="path1" d="M0.000 200.000 L 0.000 400.000 200.000 400.000 L 400.000 400.000 400.000 200.000 L 400.000 0.000 200.000 0.000 L 0.000 0.000 0.000 200.000 M214.800 80.584 C 266.896 87.183,309.067 126.779,318.341 177.800 C 319.980 186.818,320.186 189.300,320.186 200.000 C 320.186 253.851,285.316 300.521,233.833 315.576 C 221.851 319.080,214.004 320.151,200.200 320.167 C 126.171 320.256,70.146 255.305,81.020 182.000 C 90.533 117.868,150.466 72.433,214.800 80.584 " stroke="none" fill="#fcfbfb" fill-rule="evenodd"></path><path id="path2" d="M197.300 79.897 C 198.785 79.974,201.215 79.974,202.700 79.897 C 204.185 79.820,202.970 79.757,200.000 79.757 C 197.030 79.757,195.815 79.820,197.300 79.897 M186.800 80.400 C 185.175 80.653,185.136 80.682,186.400 80.705 C 187.170 80.719,188.700 80.590,189.800 80.418 C 191.692 80.124,191.713 80.107,190.200 80.114 C 189.320 80.117,187.790 80.246,186.800 80.400 M210.400 80.420 C 211.390 80.597,212.830 80.730,213.600 80.717 C 214.745 80.697,214.635 80.636,213.000 80.382 C 210.253 79.954,207.969 79.988,210.400 80.420 M180.800 81.200 C 179.443 81.486,179.437 81.495,180.600 81.507 C 181.260 81.515,182.250 81.376,182.800 81.200 C 184.112 80.780,182.796 80.780,180.800 81.200 M217.400 81.200 C 218.060 81.368,219.050 81.505,219.600 81.505 C 220.492 81.505,220.470 81.472,219.400 81.200 C 218.740 81.032,217.750 80.895,217.200 80.895 C 216.308 80.895,216.330 80.928,217.400 81.200 M176.200 82.000 C 175.111 82.277,175.093 82.307,176.000 82.325 C 176.550 82.335,177.360 82.189,177.800 82.000 C 178.786 81.576,177.866 81.576,176.200 82.000 M222.200 81.981 C 222.968 82.329,225.110 82.556,224.767 82.253 C 224.675 82.172,223.880 81.996,223.000 81.862 C 221.885 81.693,221.642 81.729,222.200 81.981 M172.400 82.800 C 171.596 83.057,171.557 83.123,172.200 83.132 C 172.640 83.138,173.360 82.989,173.800 82.800 C 174.819 82.362,173.768 82.362,172.400 82.800 M226.200 82.800 C 226.640 82.989,227.360 83.138,227.800 83.132 C 228.443 83.123,228.404 83.057,227.600 82.800 C 226.232 82.362,225.181 82.362,226.200 82.800 M169.200 83.600 C 168.396 83.857,168.357 83.923,169.000 83.932 C 169.440 83.938,170.160 83.789,170.600 83.600 C 171.619 83.162,170.568 83.162,169.200 83.600 M229.600 83.582 C 229.930 83.805,230.545 83.991,230.967 83.994 C 231.990 84.002,231.671 83.773,230.200 83.444 C 229.324 83.248,229.162 83.285,229.600 83.582 M166.400 84.400 C 165.576 84.664,165.541 84.726,166.200 84.754 C 166.640 84.773,167.270 84.613,167.600 84.400 C 168.301 83.947,167.814 83.947,166.400 84.400 M232.600 84.400 C 233.040 84.589,233.670 84.744,234.000 84.744 C 234.378 84.744,234.304 84.617,233.800 84.400 C 233.360 84.211,232.730 84.056,232.400 84.056 C 232.022 84.056,232.096 84.183,232.600 84.400 M152.000 89.600 C 151.230 90.022,150.780 90.366,151.000 90.366 C 151.220 90.366,152.030 90.022,152.800 89.600 C 153.570 89.178,154.020 88.834,153.800 88.834 C 153.580 88.834,152.770 89.178,152.000 89.600 M146.300 92.225 C 144.375 93.206,142.800 94.098,142.800 94.208 C 142.800 94.387,149.960 90.929,150.367 90.554 C 150.950 90.015,149.321 90.685,146.300 92.225 M250.800 91.200 C 251.570 91.622,252.380 91.966,252.600 91.966 C 252.820 91.966,252.370 91.622,251.600 91.200 C 250.830 90.778,250.020 90.434,249.800 90.434 C 249.580 90.434,250.030 90.778,250.800 91.200 M254.800 92.987 C 254.800 93.097,255.700 93.643,256.800 94.200 C 257.900 94.757,258.800 95.123,258.800 95.013 C 258.800 94.903,257.900 94.357,256.800 93.800 C 255.700 93.243,254.800 92.877,254.800 92.987 M139.096 96.150 C 137.175 97.331,136.638 97.889,138.200 97.081 C 139.454 96.433,141.145 95.226,140.800 95.225 C 140.690 95.225,139.923 95.641,139.096 96.150 M260.000 95.964 C 260.550 96.414,261.180 96.783,261.400 96.785 C 261.828 96.788,261.105 96.234,259.800 95.560 C 259.269 95.285,259.336 95.421,260.000 95.964 M133.296 99.807 C 131.483 101.021,130.000 102.106,130.000 102.219 C 130.000 102.418,135.814 98.642,136.580 97.945 C 137.498 97.111,136.357 97.758,133.296 99.807 M263.400 97.887 C 264.031 98.524,270.000 102.447,270.000 102.224 C 270.000 102.114,268.695 101.151,267.100 100.083 C 263.801 97.874,262.799 97.280,263.400 97.887 M127.985 103.632 L 126.600 104.863 127.888 104.013 C 129.030 103.259,129.893 102.400,129.508 102.400 C 129.432 102.400,128.747 102.954,127.985 103.632 M270.400 102.525 C 270.400 102.624,271.061 103.209,271.868 103.825 C 272.676 104.441,273.211 104.741,273.056 104.491 C 272.740 103.979,270.400 102.247,270.400 102.525 M124.400 106.434 L 122.600 108.065 124.500 106.584 C 126.166 105.286,126.659 104.797,126.300 104.801 C 126.245 104.802,125.390 105.536,124.400 106.434 M273.600 104.918 C 273.600 105.020,274.447 105.797,275.481 106.645 C 276.516 107.493,277.234 107.978,277.076 107.723 C 276.740 107.179,273.600 104.645,273.600 104.918 M281.383 111.649 C 283.372 113.547,286.602 116.787,288.560 118.849 C 290.988 121.408,291.347 121.710,289.689 119.800 C 287.250 116.990,281.831 111.622,279.183 109.393 C 278.404 108.737,279.394 109.752,281.383 111.649 M114.973 114.973 C 111.358 118.588,108.400 121.732,108.400 121.960 C 108.400 122.187,109.893 120.722,111.717 118.704 C 113.542 116.686,116.686 113.542,118.704 111.717 C 120.722 109.893,122.187 108.400,121.960 108.400 C 121.732 108.400,118.588 111.358,114.973 114.973 M106.959 123.700 C 105.207 125.721,104.687 126.400,104.890 126.400 C 105.007 126.400,105.767 125.590,106.579 124.600 C 108.081 122.766,108.379 122.063,106.959 123.700 M294.420 125.800 C 295.775 127.560,297.073 129.180,297.305 129.400 C 298.207 130.254,295.114 126.103,293.580 124.400 C 292.688 123.410,293.066 124.040,294.420 125.800 M103.375 128.268 C 102.759 129.076,102.459 129.611,102.709 129.456 C 103.221 129.140,104.953 126.800,104.675 126.800 C 104.576 126.800,103.991 127.461,103.375 128.268 M100.083 132.900 C 97.874 136.199,97.280 137.201,97.887 136.600 C 98.524 135.969,102.447 130.000,102.224 130.000 C 102.114 130.000,101.151 131.305,100.083 132.900 M300.043 133.700 C 302.321 137.121,303.807 139.089,302.987 137.600 C 302.234 136.232,297.964 130.000,297.779 130.000 C 297.669 130.000,298.688 131.665,300.043 133.700 M96.752 138.100 C 96.490 138.595,96.015 139.450,95.696 140.000 C 95.139 140.959,95.143 140.967,95.788 140.200 C 96.586 139.252,97.705 137.200,97.424 137.200 C 97.316 137.200,97.014 137.605,96.752 138.100 M303.800 139.600 C 304.141 140.260,304.511 140.800,304.621 140.800 C 304.731 140.800,304.541 140.260,304.200 139.600 C 303.859 138.940,303.489 138.400,303.379 138.400 C 303.269 138.400,303.459 138.940,303.800 139.600 M305.400 142.400 C 305.741 143.060,306.111 143.600,306.221 143.600 C 306.331 143.600,306.141 143.060,305.800 142.400 C 305.459 141.740,305.089 141.200,304.979 141.200 C 304.869 141.200,305.059 141.740,305.400 142.400 M92.179 146.442 C 91.173 148.445,90.414 150.148,90.493 150.226 C 90.571 150.304,91.481 148.666,92.515 146.584 C 93.549 144.503,94.308 142.800,94.201 142.800 C 94.095 142.800,93.185 144.439,92.179 146.442 M308.834 149.000 C 308.834 149.220,309.178 150.030,309.600 150.800 C 310.022 151.570,310.366 152.020,310.366 151.800 C 310.366 151.580,310.022 150.770,309.600 150.000 C 309.178 149.230,308.834 148.780,308.834 149.000 M314.456 163.200 C 314.456 163.530,314.611 164.160,314.800 164.600 C 315.017 165.104,315.144 165.178,315.144 164.800 C 315.144 164.470,314.989 163.840,314.800 163.400 C 314.583 162.896,314.456 162.822,314.456 163.200 M84.446 166.067 C 84.421 166.434,84.296 167.064,84.170 167.467 C 83.952 168.162,83.963 168.163,84.397 167.487 C 84.648 167.096,84.773 166.466,84.673 166.087 C 84.511 165.468,84.488 165.466,84.446 166.067 M315.256 166.000 C 315.256 166.330,315.411 166.960,315.600 167.400 C 315.817 167.904,315.944 167.978,315.944 167.600 C 315.944 167.270,315.789 166.640,315.600 166.200 C 315.383 165.696,315.256 165.622,315.256 166.000 M83.450 169.650 C 83.117 171.317,83.440 171.640,83.800 170.000 C 83.952 169.309,83.993 168.659,83.891 168.558 C 83.789 168.456,83.591 168.947,83.450 169.650 M316.056 168.800 C 316.056 169.130,316.211 169.760,316.400 170.200 C 316.617 170.704,316.744 170.778,316.744 170.400 C 316.744 170.070,316.589 169.440,316.400 169.000 C 316.183 168.496,316.056 168.422,316.056 168.800 M82.650 172.850 C 82.317 174.517,82.640 174.840,83.000 173.200 C 83.152 172.509,83.193 171.859,83.091 171.758 C 82.989 171.656,82.791 172.147,82.650 172.850 M316.868 172.000 C 316.888 173.039,317.518 174.746,317.532 173.800 C 317.538 173.360,317.389 172.640,317.200 172.200 C 316.989 171.710,316.861 171.632,316.868 172.000 M317.687 175.600 C 317.683 176.150,317.824 177.050,318.000 177.600 C 318.431 178.944,318.431 177.492,318.000 175.800 C 317.726 174.722,317.694 174.702,317.687 175.600 M82.049 175.800 C 82.016 176.240,81.896 177.050,81.783 177.600 L 81.577 178.600 82.006 177.619 C 82.242 177.079,82.361 176.269,82.272 175.819 C 82.113 175.021,82.107 175.021,82.049 175.800 M318.495 180.000 C 318.495 180.550,318.632 181.540,318.800 182.200 C 319.072 183.270,319.105 183.292,319.105 182.400 C 319.105 181.850,318.968 180.860,318.800 180.200 C 318.528 179.130,318.495 179.108,318.495 180.000 M81.055 181.455 C 80.913 182.486,80.874 183.408,80.969 183.502 C 81.063 183.596,81.265 182.839,81.418 181.818 C 81.571 180.798,81.610 179.876,81.504 179.771 C 81.398 179.665,81.196 180.423,81.055 181.455 M319.477 187.400 C 319.598 189.160,319.765 190.675,319.849 190.767 C 320.119 191.064,319.950 187.850,319.599 186.000 C 319.342 184.647,319.312 184.994,319.477 187.400 M80.212 188.212 C 80.055 189.888,80.011 191.344,80.114 191.448 C 80.218 191.551,80.431 190.264,80.588 188.588 C 80.745 186.912,80.789 185.456,80.686 185.352 C 80.582 185.249,80.369 186.536,80.212 188.212 M320.166 200.000 C 320.166 204.070,320.225 205.735,320.298 203.700 C 320.371 201.665,320.371 198.335,320.298 196.300 C 320.225 194.265,320.166 195.930,320.166 200.000 M79.757 200.000 C 79.757 202.970,79.820 204.185,79.897 202.700 C 79.974 201.215,79.974 198.785,79.897 197.300 C 79.820 195.815,79.757 197.030,79.757 200.000 M80.277 211.800 C 80.398 213.560,80.565 215.075,80.649 215.167 C 80.919 215.464,80.750 212.250,80.399 210.400 C 80.142 209.047,80.112 209.394,80.277 211.800 M319.425 212.425 C 319.270 213.994,319.227 215.361,319.329 215.462 C 319.431 215.564,319.643 214.366,319.800 212.800 C 319.957 211.234,320.000 209.867,319.896 209.763 C 319.792 209.658,319.580 210.856,319.425 212.425 M80.895 217.200 C 80.895 217.750,81.032 218.740,81.200 219.400 C 81.472 220.470,81.505 220.492,81.505 219.600 C 81.505 219.050,81.368 218.060,81.200 217.400 C 80.928 216.330,80.895 216.308,80.895 217.200 M318.618 218.618 C 318.465 219.639,318.422 220.555,318.522 220.655 C 318.622 220.755,318.829 220.002,318.982 218.982 C 319.135 217.961,319.178 217.045,319.078 216.945 C 318.978 216.845,318.771 217.598,318.618 218.618 M81.862 223.000 C 81.996 223.880,82.172 224.675,82.253 224.767 C 82.556 225.110,82.329 222.968,81.981 222.200 C 81.729 221.642,81.693 221.885,81.862 223.000 M317.800 223.200 C 317.646 224.110,317.604 224.938,317.707 225.040 C 317.810 225.143,318.013 224.477,318.160 223.560 C 318.307 222.643,318.348 221.815,318.253 221.720 C 318.158 221.624,317.954 222.290,317.800 223.200 M82.468 226.000 C 82.488 227.039,83.118 228.746,83.132 227.800 C 83.138 227.360,82.989 226.640,82.800 226.200 C 82.589 225.710,82.461 225.632,82.468 226.000 M317.029 227.029 C 316.881 227.615,316.838 228.172,316.932 228.266 C 317.027 228.360,317.224 227.958,317.371 227.371 C 317.519 226.785,317.562 226.228,317.468 226.134 C 317.373 226.040,317.176 226.442,317.029 227.029 M83.444 230.200 C 83.773 231.671,84.002 231.990,83.994 230.967 C 83.991 230.545,83.805 229.930,83.582 229.600 C 83.285 229.162,83.248 229.324,83.444 230.200 M316.229 230.229 C 316.081 230.815,316.038 231.372,316.132 231.466 C 316.227 231.560,316.424 231.158,316.571 230.571 C 316.719 229.985,316.762 229.428,316.668 229.334 C 316.573 229.240,316.376 229.642,316.229 230.229 M84.056 232.400 C 84.056 232.730,84.211 233.360,84.400 233.800 C 84.617 234.304,84.744 234.378,84.744 234.000 C 84.744 233.670,84.589 233.040,84.400 232.600 C 84.183 232.096,84.056 232.022,84.056 232.400 M314.629 235.829 C 314.481 236.415,314.438 236.972,314.532 237.066 C 314.627 237.160,314.824 236.758,314.971 236.171 C 315.119 235.585,315.162 235.028,315.068 234.934 C 314.973 234.840,314.776 235.242,314.629 235.829 M311.067 245.667 C 310.705 246.588,310.474 247.407,310.554 247.488 C 310.634 247.568,311.000 246.883,311.367 245.967 C 311.733 245.050,311.964 244.231,311.879 244.146 C 311.794 244.061,311.429 244.745,311.067 245.667 M309.472 249.419 C 308.532 251.389,308.664 251.724,309.647 249.862 C 310.093 249.016,310.387 248.254,310.301 248.167 C 310.214 248.081,309.841 248.644,309.472 249.419 M90.434 249.800 C 90.434 250.020,90.778 250.830,91.200 251.600 C 91.622 252.370,91.966 252.820,91.966 252.600 C 91.966 252.380,91.622 251.570,91.200 250.800 C 90.778 250.030,90.434 249.580,90.434 249.800 M93.820 256.840 C 94.389 257.962,94.934 258.799,95.033 258.701 C 95.223 258.510,93.251 254.800,92.959 254.800 C 92.864 254.800,93.252 255.718,93.820 256.840 M305.400 257.600 C 305.059 258.260,304.869 258.800,304.979 258.800 C 305.089 258.800,305.459 258.260,305.800 257.600 C 306.141 256.940,306.331 256.400,306.221 256.400 C 306.111 256.400,305.741 256.940,305.400 257.600 M95.560 259.800 C 96.234 261.105,96.788 261.828,96.785 261.400 C 96.783 261.180,96.414 260.550,95.964 260.000 C 95.421 259.336,95.285 259.269,95.560 259.800 M303.800 260.400 C 303.459 261.060,303.269 261.600,303.379 261.600 C 303.489 261.600,303.859 261.060,304.200 260.400 C 304.541 259.740,304.731 259.200,304.621 259.200 C 304.511 259.200,304.141 259.740,303.800 260.400 M300.071 266.346 C 294.597 274.691,286.158 284.217,277.200 292.161 C 275.770 293.429,276.220 293.123,278.200 291.480 C 286.699 284.431,298.648 270.480,302.850 262.700 C 303.862 260.827,302.639 262.431,300.071 266.346 M97.812 263.600 C 98.542 264.929,102.038 270.000,102.224 270.000 C 102.447 270.000,98.524 264.031,97.887 263.400 C 97.615 263.131,97.591 263.197,97.812 263.600 M103.191 271.588 C 103.657 272.241,104.242 272.902,104.491 273.056 C 104.741 273.211,104.441 272.676,103.825 271.868 C 102.488 270.115,101.984 269.892,103.191 271.588 M105.996 275.194 C 106.690 276.071,107.467 276.918,107.723 277.076 C 107.978 277.234,107.493 276.516,106.645 275.481 C 105.797 274.447,105.020 273.600,104.918 273.600 C 104.816 273.600,105.301 274.318,105.996 275.194 M109.393 279.183 C 111.597 281.802,117.779 288.040,120.200 290.087 C 121.520 291.204,120.912 290.516,118.849 288.559 C 116.787 286.601,113.547 283.372,111.649 281.383 C 109.752 279.394,108.737 278.404,109.393 279.183 M123.182 292.556 C 123.817 293.346,128.400 296.957,128.400 296.668 C 128.400 296.570,127.095 295.442,125.500 294.162 C 123.905 292.881,122.862 292.159,123.182 292.556 M272.791 295.546 C 272.026 296.176,269.150 298.183,266.400 300.005 C 261.811 303.046,259.646 304.625,261.200 303.798 C 264.073 302.269,275.067 294.446,274.391 294.411 C 274.276 294.405,273.556 294.916,272.791 295.546 M130.000 297.750 C 130.000 297.846,130.855 298.534,131.900 299.279 C 134.133 300.869,137.176 302.708,136.600 302.119 C 136.024 301.529,130.000 297.542,130.000 297.750 M138.400 303.379 C 138.400 303.489,138.940 303.859,139.600 304.200 C 140.260 304.541,140.800 304.731,140.800 304.621 C 140.800 304.511,140.260 304.141,139.600 303.800 C 138.940 303.459,138.400 303.269,138.400 303.379 M258.311 304.960 C 256.216 306.205,255.884 306.663,257.800 305.665 C 259.805 304.620,260.719 304.003,260.200 304.044 C 259.980 304.061,259.130 304.474,258.311 304.960 M141.200 304.979 C 141.200 305.089,141.740 305.459,142.400 305.800 C 143.060 306.141,143.600 306.331,143.600 306.221 C 143.600 306.111,143.060 305.741,142.400 305.400 C 141.740 305.059,141.200 304.869,141.200 304.979 M150.000 309.600 C 150.770 310.022,151.580 310.366,151.800 310.366 C 152.020 310.366,151.570 310.022,150.800 309.600 C 150.030 309.178,149.220 308.834,149.000 308.834 C 148.780 308.834,149.230 309.178,150.000 309.600 M249.200 309.600 C 248.430 310.022,247.980 310.366,248.200 310.366 C 248.420 310.366,249.230 310.022,250.000 309.600 C 250.770 309.178,251.220 308.834,251.000 308.834 C 250.780 308.834,249.970 309.178,249.200 309.600 M153.200 310.966 C 153.750 311.260,154.650 311.612,155.200 311.749 C 155.750 311.886,155.480 311.652,154.600 311.229 C 152.790 310.358,151.668 310.148,153.200 310.966 M245.400 311.229 C 244.520 311.652,244.250 311.886,244.800 311.749 C 245.933 311.467,248.012 310.425,247.400 310.446 C 247.180 310.453,246.280 310.806,245.400 311.229 M163.400 314.800 C 163.840 314.989,164.470 315.144,164.800 315.144 C 165.178 315.144,165.104 315.017,164.600 314.800 C 164.160 314.611,163.530 314.456,163.200 314.456 C 162.822 314.456,162.896 314.583,163.400 314.800 M166.200 315.600 C 166.640 315.789,167.270 315.944,167.600 315.944 C 167.978 315.944,167.904 315.817,167.400 315.600 C 166.960 315.411,166.330 315.256,166.000 315.256 C 165.622 315.256,165.696 315.383,166.200 315.600 M169.000 316.400 C 169.440 316.589,170.070 316.744,170.400 316.744 C 170.778 316.744,170.704 316.617,170.200 316.400 C 169.760 316.211,169.130 316.056,168.800 316.056 C 168.422 316.056,168.496 316.183,169.000 316.400 M229.800 316.400 C 229.296 316.617,229.222 316.744,229.600 316.744 C 229.930 316.744,230.560 316.589,231.000 316.400 C 231.504 316.183,231.578 316.056,231.200 316.056 C 230.870 316.056,230.240 316.211,229.800 316.400 M172.200 317.200 C 172.640 317.389,173.360 317.538,173.800 317.532 C 174.443 317.523,174.404 317.457,173.600 317.200 C 172.232 316.762,171.181 316.762,172.200 317.200 M226.600 317.200 C 225.581 317.638,226.632 317.638,228.000 317.200 C 228.804 316.943,228.843 316.877,228.200 316.868 C 227.760 316.862,227.040 317.011,226.600 317.200 M175.800 318.000 C 177.492 318.431,178.944 318.431,177.600 318.000 C 177.050 317.824,176.150 317.683,175.600 317.687 C 174.702 317.694,174.722 317.726,175.800 318.000 M222.400 318.000 C 221.056 318.431,222.508 318.431,224.200 318.000 C 225.278 317.726,225.298 317.694,224.400 317.687 C 223.850 317.683,222.950 317.824,222.400 318.000 M180.200 318.800 C 180.860 318.968,181.850 319.105,182.400 319.105 C 183.292 319.105,183.270 319.072,182.200 318.800 C 181.540 318.632,180.550 318.495,180.000 318.495 C 179.108 318.495,179.130 318.528,180.200 318.800 M217.800 318.800 C 216.137 319.223,217.774 319.242,219.800 318.823 C 221.145 318.545,221.209 318.492,220.200 318.493 C 219.540 318.494,218.460 318.632,217.800 318.800 M186.000 319.599 C 187.850 319.950,191.064 320.119,190.767 319.849 C 190.675 319.765,189.160 319.598,187.400 319.477 C 184.994 319.312,184.647 319.342,186.000 319.599 M211.200 319.600 C 209.563 319.854,209.527 319.883,210.800 319.910 C 211.570 319.927,213.010 319.797,214.000 319.620 C 216.397 319.194,213.928 319.176,211.200 319.600 M196.480 320.298 C 198.394 320.371,201.634 320.371,203.680 320.298 C 205.726 320.226,204.160 320.166,200.200 320.165 C 196.240 320.165,194.566 320.224,196.480 320.298 " stroke="none" fill="#e59cad" fill-rule="evenodd"></path><path id="path3" d="M196.500 80.298 C 198.425 80.371,201.575 80.371,203.500 80.298 C 205.425 80.225,203.850 80.165,200.000 80.165 C 196.150 80.165,194.575 80.225,196.500 80.298 M190.105 80.687 C 190.714 80.779,191.614 80.777,192.105 80.682 C 192.597 80.587,192.100 80.511,191.000 80.514 C 189.900 80.517,189.497 80.595,190.105 80.687 M208.100 80.687 C 208.705 80.778,209.695 80.778,210.300 80.687 C 210.905 80.595,210.410 80.520,209.200 80.520 C 207.990 80.520,207.495 80.595,208.100 80.687 M183.400 81.200 C 181.737 81.623,183.374 81.642,185.400 81.223 C 186.745 80.945,186.809 80.892,185.800 80.893 C 185.140 80.894,184.060 81.032,183.400 81.200 M213.700 81.076 C 214.085 81.176,214.715 81.176,215.100 81.076 C 215.485 80.975,215.170 80.893,214.400 80.893 C 213.630 80.893,213.315 80.975,213.700 81.076 M178.400 82.000 C 177.608 82.254,177.567 82.320,178.200 82.320 C 178.640 82.320,179.450 82.176,180.000 82.000 C 180.792 81.746,180.833 81.680,180.200 81.680 C 179.760 81.680,178.950 81.824,178.400 82.000 M224.400 82.800 C 225.768 83.238,226.819 83.238,225.800 82.800 C 225.360 82.611,224.640 82.462,224.200 82.468 C 223.557 82.477,223.596 82.543,224.400 82.800 M171.000 83.600 C 170.496 83.817,170.422 83.944,170.800 83.944 C 171.130 83.944,171.760 83.789,172.200 83.600 C 172.704 83.383,172.778 83.256,172.400 83.256 C 172.070 83.256,171.440 83.411,171.000 83.600 M227.233 83.344 C 227.325 83.423,227.940 83.608,228.600 83.756 C 229.476 83.952,229.638 83.915,229.200 83.618 C 228.660 83.253,226.832 82.998,227.233 83.344 M167.800 84.400 C 167.296 84.617,167.222 84.744,167.600 84.744 C 167.930 84.744,168.560 84.589,169.000 84.400 C 169.504 84.183,169.578 84.056,169.200 84.056 C 168.870 84.056,168.240 84.211,167.800 84.400 M231.000 84.400 C 231.440 84.589,232.070 84.744,232.400 84.744 C 232.778 84.744,232.704 84.617,232.200 84.400 C 231.760 84.211,231.130 84.056,230.800 84.056 C 230.422 84.056,230.496 84.183,231.000 84.400 M250.433 91.353 C 250.841 91.727,256.400 94.389,256.400 94.210 C 256.400 93.987,250.978 91.200,250.543 91.200 C 250.391 91.200,250.342 91.269,250.433 91.353 M258.400 95.379 C 258.400 95.489,258.940 95.859,259.600 96.200 C 260.260 96.541,260.800 96.731,260.800 96.621 C 260.800 96.511,260.260 96.141,259.600 95.800 C 258.940 95.459,258.400 95.269,258.400 95.379 M138.800 96.836 C 138.136 97.379,138.069 97.515,138.600 97.240 C 139.905 96.566,140.628 96.012,140.200 96.015 C 139.980 96.017,139.350 96.386,138.800 96.836 M263.400 98.278 C 264.132 99.002,270.439 103.187,270.190 102.784 C 270.055 102.566,268.652 101.522,267.072 100.464 C 263.837 98.299,262.790 97.675,263.400 98.278 M133.043 100.422 C 131.380 101.535,129.912 102.619,129.780 102.832 C 129.592 103.136,135.684 99.178,136.367 98.553 C 137.119 97.864,135.545 98.749,133.043 100.422 M127.585 104.429 L 126.200 105.658 127.700 104.581 C 129.026 103.630,129.457 103.200,129.085 103.200 C 129.022 103.200,128.347 103.753,127.585 104.429 M274.000 105.718 C 274.000 105.820,274.847 106.597,275.881 107.445 C 276.916 108.293,277.634 108.778,277.476 108.523 C 277.140 107.979,274.000 105.445,274.000 105.718 M122.654 108.233 C 122.023 108.787,121.587 109.320,121.683 109.416 C 121.779 109.513,122.374 109.054,123.004 108.396 C 124.396 106.943,124.216 106.859,122.654 108.233 M279.400 110.400 C 280.259 111.280,281.052 112.000,281.162 112.000 C 281.272 112.000,280.659 111.280,279.800 110.400 C 278.941 109.520,278.148 108.800,278.038 108.800 C 277.928 108.800,278.541 109.520,279.400 110.400 M115.195 115.500 L 109.400 121.400 115.300 115.605 C 118.545 112.418,121.200 109.763,121.200 109.705 C 121.200 109.419,120.578 110.019,115.195 115.500 M283.200 113.660 C 283.200 113.995,287.672 118.461,287.840 118.293 C 287.917 118.217,286.904 117.090,285.590 115.790 C 284.275 114.489,283.200 113.531,283.200 113.660 M289.400 120.400 C 290.259 121.280,291.052 122.000,291.162 122.000 C 291.272 122.000,290.659 121.280,289.800 120.400 C 288.941 119.520,288.148 118.800,288.038 118.800 C 287.928 118.800,288.541 119.520,289.400 120.400 M108.034 122.953 L 107.069 124.200 108.213 123.112 C 108.843 122.514,109.277 121.953,109.179 121.865 C 109.080 121.777,108.565 122.267,108.034 122.953 M292.555 124.119 C 293.403 125.153,294.180 126.000,294.282 126.000 C 294.555 126.000,292.021 122.860,291.477 122.524 C 291.222 122.366,291.707 123.084,292.555 124.119 M104.744 127.100 C 103.593 128.489,103.106 129.200,103.304 129.200 C 103.414 129.200,103.986 128.570,104.573 127.800 C 105.663 126.371,105.795 125.832,104.744 127.100 M101.073 132.100 C 99.513 134.308,97.932 136.948,98.498 136.400 C 98.943 135.970,103.169 129.600,103.010 129.600 C 102.917 129.600,102.045 130.725,101.073 132.100 M298.208 131.558 C 299.015 132.681,299.757 133.600,299.857 133.600 C 300.132 133.600,297.652 130.080,297.166 129.779 C 296.932 129.635,297.401 130.435,298.208 131.558 M300.605 134.965 C 300.989 135.606,301.659 136.731,302.092 137.465 C 302.525 138.199,302.963 138.800,303.065 138.800 C 303.344 138.800,301.679 135.943,300.733 134.800 L 299.905 133.800 300.605 134.965 M96.614 139.035 C 96.241 139.604,96.005 140.138,96.089 140.222 C 96.173 140.307,96.558 139.841,96.944 139.188 C 97.806 137.728,97.548 137.609,96.614 139.035 M303.800 140.400 C 304.141 141.060,304.511 141.600,304.621 141.600 C 304.731 141.600,304.541 141.060,304.200 140.400 C 303.859 139.740,303.489 139.200,303.379 139.200 C 303.269 139.200,303.459 139.740,303.800 140.400 M305.800 144.000 C 306.357 145.100,306.903 146.000,307.013 146.000 C 307.123 146.000,306.757 145.100,306.200 144.000 C 305.643 142.900,305.097 142.000,304.987 142.000 C 304.877 142.000,305.243 142.900,305.800 144.000 M84.229 168.229 C 84.081 168.815,84.038 169.372,84.132 169.466 C 84.227 169.560,84.424 169.158,84.571 168.571 C 84.719 167.985,84.762 167.428,84.668 167.334 C 84.573 167.240,84.376 167.642,84.229 168.229 M316.056 170.400 C 316.056 170.730,316.211 171.360,316.400 171.800 C 316.617 172.304,316.744 172.378,316.744 172.000 C 316.744 171.670,316.589 171.040,316.400 170.600 C 316.183 170.096,316.056 170.022,316.056 170.400 M83.429 171.429 C 83.281 172.015,83.238 172.572,83.332 172.666 C 83.427 172.760,83.624 172.358,83.771 171.771 C 83.919 171.185,83.962 170.628,83.868 170.534 C 83.773 170.440,83.576 170.842,83.429 171.429 M81.822 179.022 C 81.672 179.825,81.628 180.562,81.726 180.660 C 81.824 180.757,82.027 180.181,82.178 179.378 C 82.328 178.575,82.372 177.838,82.274 177.740 C 82.176 177.643,81.973 178.219,81.822 179.022 M318.681 184.000 C 318.806 185.210,318.974 186.275,319.054 186.367 C 319.335 186.687,319.117 183.791,318.787 182.800 C 318.571 182.154,318.534 182.580,318.681 184.000 M81.000 184.400 C 80.845 185.528,80.802 186.536,80.906 186.639 C 81.009 186.742,81.216 185.900,81.367 184.767 C 81.517 183.634,81.559 182.626,81.461 182.528 C 81.363 182.429,81.155 183.272,81.000 184.400 M319.301 189.800 C 319.305 190.680,319.387 190.993,319.483 190.495 C 319.579 189.998,319.575 189.278,319.475 188.895 C 319.375 188.513,319.296 188.920,319.301 189.800 M80.514 191.000 C 80.517 192.100,80.595 192.503,80.687 191.895 C 80.779 191.286,80.777 190.386,80.682 189.895 C 80.587 189.403,80.511 189.900,80.514 191.000 M319.691 199.241 C 319.641 203.554,319.517 208.234,319.415 209.641 L 319.230 212.200 319.618 209.800 C 319.832 208.480,319.956 203.800,319.894 199.400 L 319.782 191.400 319.691 199.241 M80.165 200.000 C 80.165 203.850,80.225 205.425,80.298 203.500 C 80.371 201.575,80.371 198.425,80.298 196.500 C 80.225 194.575,80.165 196.150,80.165 200.000 M80.520 209.200 C 80.520 210.410,80.595 210.905,80.687 210.300 C 80.778 209.695,80.778 208.705,80.687 208.100 C 80.595 207.495,80.520 207.990,80.520 209.200 M80.893 214.200 C 80.894 214.860,81.032 215.940,81.200 216.600 C 81.623 218.263,81.642 216.626,81.223 214.600 C 80.945 213.255,80.892 213.191,80.893 214.200 M318.646 215.846 C 318.500 217.093,318.459 218.193,318.557 218.290 C 318.654 218.388,318.861 217.454,319.015 216.215 C 319.170 214.977,319.210 213.877,319.105 213.771 C 318.999 213.666,318.793 214.599,318.646 215.846 M82.468 224.200 C 82.462 224.640,82.611 225.360,82.800 225.800 C 83.238 226.819,83.238 225.768,82.800 224.400 C 82.543 223.596,82.477 223.557,82.468 224.200 M317.249 224.200 C 317.216 224.640,317.096 225.450,316.983 226.000 L 316.777 227.000 317.206 226.019 C 317.442 225.479,317.561 224.669,317.472 224.219 C 317.313 223.421,317.307 223.421,317.249 224.200 M83.206 227.833 C 83.209 228.255,83.395 228.870,83.618 229.200 C 83.915 229.638,83.952 229.476,83.756 228.600 C 83.427 227.129,83.198 226.810,83.206 227.833 M316.229 228.629 C 316.081 229.215,316.038 229.772,316.132 229.866 C 316.227 229.960,316.424 229.558,316.571 228.971 C 316.719 228.385,316.762 227.828,316.668 227.734 C 316.573 227.640,316.376 228.042,316.229 228.629 M84.056 230.800 C 84.056 231.130,84.211 231.760,84.400 232.200 C 84.617 232.704,84.744 232.778,84.744 232.400 C 84.744 232.070,84.589 231.440,84.400 231.000 C 84.183 230.496,84.056 230.422,84.056 230.800 M308.672 250.219 C 307.732 252.189,307.864 252.524,308.847 250.662 C 309.293 249.816,309.587 249.054,309.501 248.967 C 309.414 248.881,309.041 249.444,308.672 250.219 M91.200 250.543 C 91.200 250.978,93.987 256.400,94.210 256.400 C 94.320 256.400,93.757 255.095,92.958 253.500 C 91.460 250.507,91.200 250.070,91.200 250.543 M305.400 256.800 C 305.059 257.460,304.869 258.000,304.979 258.000 C 305.089 258.000,305.459 257.460,305.800 256.800 C 306.141 256.140,306.331 255.600,306.221 255.600 C 306.111 255.600,305.741 256.140,305.400 256.800 M95.800 259.600 C 96.141 260.260,96.511 260.800,96.621 260.800 C 96.731 260.800,96.541 260.260,96.200 259.600 C 95.859 258.940,95.489 258.400,95.379 258.400 C 95.269 258.400,95.459 258.940,95.800 259.600 M302.200 262.400 C 301.859 263.060,301.669 263.600,301.779 263.600 C 301.889 263.600,302.259 263.060,302.600 262.400 C 302.941 261.740,303.131 261.200,303.021 261.200 C 302.911 261.200,302.541 261.740,302.200 262.400 M98.008 263.200 C 98.766 264.669,102.329 269.909,102.744 270.165 C 103.065 270.364,98.206 262.881,97.701 262.400 C 97.586 262.290,97.724 262.650,98.008 263.200 M296.975 270.268 C 296.359 271.076,296.059 271.611,296.309 271.456 C 296.821 271.140,298.553 268.800,298.275 268.800 C 298.176 268.800,297.591 269.461,296.975 270.268 M294.575 273.468 C 293.959 274.276,293.659 274.811,293.909 274.656 C 294.421 274.340,296.153 272.000,295.875 272.000 C 295.776 272.000,295.191 272.661,294.575 273.468 M106.796 275.594 C 107.490 276.471,108.267 277.318,108.523 277.476 C 108.778 277.634,108.293 276.916,107.445 275.881 C 106.597 274.847,105.820 274.000,105.718 274.000 C 105.616 274.000,106.101 274.718,106.796 275.594 M292.401 276.198 C 291.886 276.748,291.539 277.264,291.632 277.346 C 291.724 277.428,292.219 276.978,292.730 276.347 C 293.876 274.935,293.674 274.844,292.401 276.198 M110.200 279.600 C 111.059 280.480,111.852 281.200,111.962 281.200 C 112.072 281.200,111.459 280.480,110.600 279.600 C 109.741 278.720,108.948 278.000,108.838 278.000 C 108.728 278.000,109.341 278.720,110.200 279.600 M289.775 279.300 L 288.600 280.600 289.900 279.425 C 290.615 278.779,291.200 278.194,291.200 278.125 C 291.200 277.816,290.870 278.088,289.775 279.300 M284.503 284.731 C 282.470 286.826,280.859 288.592,280.923 288.657 C 280.988 288.721,282.828 286.980,285.013 284.787 C 287.198 282.594,288.808 280.828,288.592 280.862 C 288.377 280.896,286.536 282.637,284.503 284.731 M115.790 285.590 C 117.090 286.904,118.217 287.917,118.293 287.840 C 118.461 287.672,113.995 283.200,113.660 283.200 C 113.531 283.200,114.489 284.275,115.790 285.590 M120.200 289.600 C 121.059 290.480,121.852 291.200,121.962 291.200 C 122.072 291.200,121.459 290.480,120.600 289.600 C 119.741 288.720,118.948 288.000,118.838 288.000 C 118.728 288.000,119.341 288.720,120.200 289.600 M278.975 290.100 L 277.800 291.400 279.100 290.225 C 280.312 289.130,280.584 288.800,280.275 288.800 C 280.206 288.800,279.621 289.385,278.975 290.100 M122.524 291.477 C 122.860 292.021,126.000 294.555,126.000 294.282 C 126.000 294.180,125.153 293.403,124.119 292.555 C 123.084 291.707,122.366 291.222,122.524 291.477 M275.970 292.700 L 275.000 293.800 276.200 292.800 C 276.860 292.250,277.475 291.755,277.567 291.700 C 277.658 291.645,277.555 291.600,277.336 291.600 C 277.118 291.600,276.503 292.095,275.970 292.700 M272.000 295.650 C 268.790 298.123,267.956 298.978,270.474 297.215 C 272.504 295.792,275.123 293.628,274.800 293.640 C 274.690 293.643,273.430 294.548,272.000 295.650 M128.497 296.233 C 128.640 296.464,129.892 297.434,131.278 298.388 C 132.665 299.342,133.530 299.855,133.200 299.528 C 132.271 298.608,128.204 295.759,128.497 296.233 M134.800 300.733 C 135.943 301.679,138.800 303.344,138.800 303.065 C 138.800 302.963,138.199 302.525,137.465 302.092 C 136.731 301.659,135.606 300.989,134.965 300.605 L 133.800 299.905 134.800 300.733 M262.300 302.229 C 260.805 303.040,260.896 303.378,262.400 302.600 C 263.060 302.259,263.600 301.894,263.600 301.790 C 263.600 301.532,263.557 301.547,262.300 302.229 M139.200 303.379 C 139.200 303.489,139.740 303.859,140.400 304.200 C 141.060 304.541,141.600 304.731,141.600 304.621 C 141.600 304.511,141.060 304.141,140.400 303.800 C 139.740 303.459,139.200 303.269,139.200 303.379 M142.000 304.987 C 142.000 305.097,142.900 305.643,144.000 306.200 C 145.100 306.757,146.000 307.123,146.000 307.013 C 146.000 306.903,145.100 306.357,144.000 305.800 C 142.900 305.243,142.000 304.877,142.000 304.987 M256.700 305.429 C 255.205 306.240,255.296 306.578,256.800 305.800 C 257.460 305.459,258.000 305.094,258.000 304.990 C 258.000 304.732,257.957 304.747,256.700 305.429 M250.000 308.800 C 249.230 309.222,248.780 309.566,249.000 309.566 C 249.220 309.566,250.030 309.222,250.800 308.800 C 251.570 308.378,252.020 308.034,251.800 308.034 C 251.580 308.034,250.770 308.378,250.000 308.800 M231.400 315.600 C 230.896 315.817,230.822 315.944,231.200 315.944 C 231.530 315.944,232.160 315.789,232.600 315.600 C 233.104 315.383,233.178 315.256,232.800 315.256 C 232.470 315.256,231.840 315.411,231.400 315.600 M170.600 316.400 C 171.040 316.589,171.670 316.744,172.000 316.744 C 172.378 316.744,172.304 316.617,171.800 316.400 C 171.360 316.211,170.730 316.056,170.400 316.056 C 170.022 316.056,170.096 316.183,170.600 316.400 M228.200 316.400 C 227.696 316.617,227.622 316.744,228.000 316.744 C 228.330 316.744,228.960 316.589,229.400 316.400 C 229.904 316.183,229.978 316.056,229.600 316.056 C 229.270 316.056,228.640 316.211,228.200 316.400 M224.600 317.200 C 223.511 317.477,223.493 317.507,224.400 317.525 C 224.950 317.535,225.760 317.389,226.200 317.200 C 227.186 316.776,226.266 316.776,224.600 317.200 M182.800 318.787 C 183.791 319.117,186.687 319.335,186.367 319.054 C 186.275 318.974,185.210 318.806,184.000 318.681 C 182.580 318.534,182.154 318.571,182.800 318.787 M215.000 318.800 L 213.400 319.086 214.800 319.096 C 215.570 319.101,216.740 318.968,217.400 318.800 C 219.028 318.386,217.313 318.386,215.000 318.800 M189.105 319.483 C 189.602 319.579,190.322 319.575,190.705 319.475 C 191.087 319.375,190.680 319.296,189.800 319.301 C 188.920 319.305,188.607 319.387,189.105 319.483 M200.200 319.600 L 191.400 319.824 199.800 319.877 C 204.420 319.906,209.100 319.790,210.200 319.618 C 212.516 319.258,213.596 319.260,200.200 319.600 " stroke="none" fill="#dc748c" fill-rule="evenodd"></path><path id="path4" d="M114.992 115.300 L 111.400 119.000 115.100 115.408 C 117.135 113.433,118.800 111.768,118.800 111.708 C 118.800 111.418,118.328 111.864,114.992 115.300 " stroke="none" fill="#dc7c94" fill-rule="evenodd"></path></g></svg>