<svg width="35" height="33" viewBox="0 0 35 33" fill="none" xmlns="http://www.w3.org/2000/svg">
<g clip-path="url(#clip0)">
<path d="M1.79155 0.0679474L15.4141 10.1119L12.8838 4.1861L1.79155 0.0679474Z" fill="#E2761B"/>
<path fill-rule="evenodd" clip-rule="evenodd" d="M1.73144 0.0354936C1.71517 0.0652394 1.72341 0.102351 1.75077 0.122526L15.3733 10.1665C15.3981 10.1847 15.4321 10.1842 15.4563 10.1653C15.4806 10.1463 15.489 10.1136 15.477 10.0853L12.9467 4.15955C12.9394 4.14239 12.9253 4.12897 12.9077 4.12244L1.81546 0.0042927C1.78354 -0.0075568 1.74771 0.00574783 1.73144 0.0354936ZM12.8323 4.23953L15.2529 9.90844L2.22088 0.299902L12.8323 4.23953Z" fill="#E2761B"/>
<path d="M33.209 0.0679474L19.7096 10.207L22.1168 4.1861L33.209 0.0679474Z" fill="#E4761B"/>
<path fill-rule="evenodd" clip-rule="evenodd" d="M33.2689 0.0352287C33.2525 0.00565537 33.2168 -0.00751691 33.185 0.00429249L22.0928 4.12244C22.0747 4.12916 22.0603 4.14317 22.0532 4.16101L19.646 10.1819C19.6347 10.2103 19.6437 10.2426 19.6681 10.2611C19.6925 10.2796 19.7263 10.2796 19.7508 10.2612L33.2502 0.122164C33.2773 0.101818 33.2852 0.064802 33.2689 0.0352287ZM32.7937 0.294674L19.8634 10.0063L22.1691 4.23921L32.7937 0.294674Z" fill="#E4761B"/>
<path d="M6.68804 23.3498L10.3125 28.8678L2.55752 30.988L0.341812 23.4721L6.68804 23.3498Z" fill="#E4761B"/>
<path fill-rule="evenodd" clip-rule="evenodd" d="M6.74528 23.3126C6.73239 23.293 6.71025 23.2814 6.68668 23.2818L0.340452 23.4041C0.31915 23.4046 0.299258 23.4148 0.28665 23.4319C0.274042 23.4489 0.270161 23.4709 0.276151 23.4912L2.49186 31.0072C2.50235 31.0428 2.53964 31.0634 2.57563 31.0536L10.3306 28.9333C10.3517 28.9276 10.3687 28.9122 10.3764 28.8919C10.3842 28.8716 10.3817 28.8488 10.3697 28.8307L6.74528 23.3126ZM6.65145 23.4184L10.204 28.827L2.6042 30.9048L0.43256 23.5383L6.65145 23.4184Z" fill="#E4761B"/>
<path d="M34.6445 23.4721L32.4425 30.988L24.6875 28.8678L28.2983 23.3498L34.6445 23.4721Z" fill="#E4761B"/>
<path fill-rule="evenodd" clip-rule="evenodd" d="M28.2996 23.2818C28.276 23.2814 28.2538 23.2931 28.2409 23.3127L24.6302 28.8308C24.6183 28.8489 24.6158 28.8717 24.6236 28.8919C24.6313 28.9122 24.6483 28.9276 24.6693 28.9333L32.4243 31.0536C32.4604 31.0634 32.4977 31.0427 32.5081 31.007L34.7102 23.4911C34.7161 23.4708 34.7122 23.4489 34.6996 23.4318C34.687 23.4148 34.6671 23.4046 34.6458 23.4041L28.2996 23.2818ZM34.5539 23.5383L32.3956 30.9048L24.7958 28.8269L28.3349 23.4184L34.5539 23.5383Z" fill="#E4761B"/>
<path d="M25.1115 14.0262L27.2725 17.2745L19.5859 17.6143L19.8457 9.39156L25.1115 14.0262Z" fill="#E4761B"/>
<path fill-rule="evenodd" clip-rule="evenodd" d="M19.8186 9.32915C19.7943 9.33959 19.7782 9.36308 19.7774 9.38942L19.5175 17.6121C19.5169 17.631 19.5242 17.6493 19.5378 17.6626C19.5513 17.6759 19.5699 17.683 19.5889 17.6821L27.2755 17.3424C27.3001 17.3413 27.3222 17.3271 27.3334 17.3053C27.3445 17.2835 27.3431 17.2574 27.3295 17.237L25.1685 13.9887C25.1652 13.9837 25.1612 13.9792 25.1568 13.9753L19.891 9.34068C19.8712 9.32321 19.843 9.31871 19.8186 9.32915ZM25.0594 14.0711L27.1488 17.2119L19.6565 17.5431L19.9095 9.53846L25.0594 14.0711Z" fill="#E4761B"/>
<path d="M9.88847 14.0262L15.2363 9.29642L15.4141 17.6143L7.72747 17.2745L9.88847 14.0262Z" fill="#E4761B"/>
<path fill-rule="evenodd" clip-rule="evenodd" d="M15.2636 9.23412C15.2391 9.22353 15.2107 9.22803 15.1908 9.24565L9.84297 13.9754C9.83855 13.9793 9.83466 13.9838 9.83139 13.9887L7.67039 17.237C7.65681 17.2574 7.65533 17.2835 7.66651 17.3053C7.67768 17.3271 7.6998 17.3413 7.7244 17.3424L15.411 17.6821C15.4299 17.683 15.4483 17.676 15.4618 17.6629C15.4754 17.6497 15.4828 17.6316 15.4824 17.6128L15.3046 9.29497C15.304 9.26847 15.288 9.24471 15.2636 9.23412ZM15.171 9.44507L15.3441 17.5431L7.85104 17.2119L9.94057 14.071L15.171 9.44507Z" fill="#E4761B"/>
<path d="M24.6875 28.8678L20.0509 26.6253L24.0447 23.5265L24.6875 28.8678Z" fill="#E4761B"/>
<path fill-rule="evenodd" clip-rule="evenodd" d="M24.0709 23.4637C24.0481 23.4543 24.022 23.4578 24.0026 23.4729L20.0088 26.5717C19.9902 26.5861 19.9804 26.6091 19.9829 26.6324C19.9854 26.6557 19.9998 26.6761 20.021 26.6864L24.6575 28.9289C24.68 28.9398 24.7067 28.9376 24.7271 28.9232C24.7475 28.9088 24.7583 28.8844 24.7554 28.8597L24.1125 23.5184C24.1096 23.494 24.0937 23.4731 24.0709 23.4637ZM23.9911 23.6542L24.6047 28.7522L20.1793 26.6118L23.9911 23.6542Z" fill="#E4761B"/>
<path d="M14.9492 26.6253L10.3126 28.8678L10.9555 23.5265L14.9492 26.6253Z" fill="#E4761B"/>
<path fill-rule="evenodd" clip-rule="evenodd" d="M10.9292 23.4637C10.9064 23.4731 10.8905 23.494 10.8875 23.5184L10.2447 28.8597C10.2417 28.8844 10.2526 28.9088 10.273 28.9232C10.2934 28.9376 10.32 28.9398 10.3425 28.9289L14.9791 26.6864C15.0003 26.6761 15.0147 26.6557 15.0172 26.6324C15.0197 26.6091 15.0099 26.5861 14.9913 26.5717L10.9975 23.4729C10.9781 23.4578 10.952 23.4543 10.9292 23.4637ZM14.8207 26.6118L10.3954 28.7522L11.0089 23.6542L14.8207 26.6118Z" fill="#E4761B"/>
<path d="M10.3126 28.8678L14.9492 26.6253L14.5799 29.6289L14.621 30.8929L10.3126 28.8678Z" fill="#D7C1B3"/>
<path fill-rule="evenodd" clip-rule="evenodd" d="M14.9889 26.5699C14.9685 26.5555 14.9418 26.5533 14.9193 26.5642L10.2827 28.8067C10.259 28.8181 10.2441 28.842 10.2442 28.8682C10.2444 28.8943 10.2596 28.9181 10.2834 28.9292L14.5917 30.9543C14.6132 30.9645 14.6385 30.9627 14.6585 30.9497C14.6784 30.9367 14.6901 30.9144 14.6893 30.8907L14.6484 29.632L15.0171 26.6335C15.0201 26.6088 15.0093 26.5844 14.9889 26.5699ZM14.8661 26.741L14.512 29.6207C14.5116 29.6241 14.5114 29.6276 14.5116 29.6311L14.549 30.7839L10.4707 28.8669L14.8661 26.741Z" fill="#D7C1B3"/>
<path d="M24.6875 28.8678L20.3792 30.8929L20.4065 29.6289L20.0509 26.6253L24.6875 28.8678Z" fill="#D7C1B3"/>
<path fill-rule="evenodd" clip-rule="evenodd" d="M20.0113 26.5698C19.9909 26.5842 19.9801 26.6085 19.983 26.6332L20.338 29.6322L20.3108 30.8914C20.3103 30.915 20.3221 30.9371 20.3419 30.9499C20.3618 30.9627 20.387 30.9644 20.4084 30.9543L24.7167 28.9292C24.7405 28.9181 24.7557 28.8943 24.7559 28.8682C24.756 28.842 24.7411 28.8181 24.7174 28.8067L20.0808 26.5642C20.0583 26.5533 20.0317 26.5555 20.0113 26.5698ZM24.5294 28.8669L20.4499 30.7845L20.4749 29.6304C20.4749 29.6272 20.4748 29.6241 20.4744 29.621L20.1334 26.7407L24.5294 28.8669Z" fill="#D7C1B3"/>
<path d="M20.2973 21.5421L24.1543 20.4141L21.4325 19.1772L20.2973 21.5421Z" fill="#233447"/>
<path fill-rule="evenodd" clip-rule="evenodd" d="M21.4609 19.1155C21.427 19.1 21.3869 19.1145 21.3708 19.148L20.2356 21.5129C20.224 21.5371 20.2277 21.5658 20.2453 21.5862C20.2628 21.6066 20.2907 21.6149 20.3166 21.6073L24.1736 20.4792C24.201 20.4712 24.2204 20.4472 24.2225 20.4189C24.2245 20.3906 24.2087 20.364 24.1827 20.3523L21.4609 19.1155ZM23.9594 20.4002L20.425 21.4339L21.4653 19.2669L23.9594 20.4002Z" fill="#233447"/>
<path d="M14.7031 21.5421L13.5679 19.1772L10.8325 20.4141L14.7031 21.5421Z" fill="#233447"/>
<path fill-rule="evenodd" clip-rule="evenodd" d="M13.6296 19.148C13.6136 19.1146 13.5735 19.1001 13.5396 19.1154L10.8041 20.3522C10.7781 20.364 10.7622 20.3905 10.7642 20.4189C10.7663 20.4472 10.7858 20.4713 10.8132 20.4793L14.6839 21.6073C14.7097 21.6149 14.7377 21.6066 14.7552 21.5862C14.7727 21.5658 14.7764 21.5371 14.7648 21.5129L13.6296 19.148ZM13.5351 19.2667L14.5755 21.4341L11.0281 20.4003L13.5351 19.2667Z" fill="#233447"/>
<path d="M24.6871 28.8678L24.0169 23.3497L28.2979 23.4721L24.6871 28.8678Z" fill="#CD6116"/>
<path fill-rule="evenodd" clip-rule="evenodd" d="M23.9663 23.3039C23.9529 23.3186 23.9466 23.3383 23.949 23.3579L24.6191 28.8759C24.6226 28.9042 24.6434 28.9273 24.6712 28.9339C24.6991 28.9405 24.7281 28.9291 24.744 28.9054L28.3548 23.5097C28.3685 23.4891 28.37 23.4628 28.3586 23.4408C28.3471 23.4189 28.3246 23.4049 28.2998 23.4041L24.0188 23.2818C23.9989 23.2813 23.9798 23.2893 23.9663 23.3039ZM28.1726 23.5365L24.7327 28.6768L24.0943 23.42L28.1726 23.5365Z" fill="#CD6116"/>
<path d="M10.9824 23.3497L10.3122 28.8678L6.68777 23.4721L10.9824 23.3497Z" fill="#CD6116"/>
<path fill-rule="evenodd" clip-rule="evenodd" d="M11.0329 23.304C11.0195 23.2893 11.0003 23.2813 10.9804 23.2818L6.68579 23.4041C6.66093 23.4049 6.63841 23.4189 6.62699 23.4409C6.61558 23.4629 6.61706 23.4892 6.63088 23.5098L10.2553 28.9055C10.2712 28.9292 10.3002 28.9405 10.3281 28.9339C10.3559 28.9273 10.3767 28.9042 10.3801 28.8759L11.0503 23.3579C11.0527 23.3383 11.0463 23.3186 11.0329 23.304ZM10.905 23.4199L10.2665 28.6773L6.81324 23.5365L10.905 23.4199Z" fill="#CD6116"/>
<path d="M7.72747 17.2745L15.4141 17.6143L14.7028 21.5421L13.5676 19.1773L10.8322 20.4141L7.72747 17.2745Z" fill="#CD6116"/>
<path fill-rule="evenodd" clip-rule="evenodd" d="M7.664 17.2468C7.65256 17.2723 7.65799 17.3022 7.67769 17.3221L10.7824 20.4617C10.8026 20.482 10.8334 20.4877 10.8595 20.4759L13.5338 19.2667L14.6401 21.5714C14.6529 21.598 14.6815 21.6134 14.7109 21.6095C14.7404 21.6055 14.7639 21.5832 14.7691 21.5542L15.4804 17.6263C15.4839 17.607 15.4788 17.5871 15.4665 17.5718C15.4542 17.5565 15.4358 17.5472 15.4161 17.5464L7.7295 17.2066C7.70143 17.2053 7.67544 17.2213 7.664 17.2468ZM15.3319 17.6787L14.6721 21.3224L13.6284 19.148C13.6123 19.1145 13.5723 19.1 13.5383 19.1154L10.8464 20.3325L7.89707 17.35L15.3319 17.6787Z" fill="#CD6116"/>
<path d="M24.1541 20.4141L21.4323 19.1773L20.2971 21.5421L19.5859 17.6143L27.2725 17.2745L24.1541 20.4141Z" fill="#CD6116"/>
<path fill-rule="evenodd" clip-rule="evenodd" d="M27.3349 17.2469C27.3235 17.2213 27.2975 17.2053 27.2694 17.2066L19.5828 17.5464C19.5631 17.5472 19.5447 17.5565 19.5324 17.5718C19.5201 17.5871 19.515 17.607 19.5185 17.6263L20.2297 21.5542C20.235 21.5832 20.2585 21.6055 20.2879 21.6095C20.3174 21.6134 20.346 21.598 20.3588 21.5714L21.465 19.2669L24.1256 20.4758C24.1517 20.4877 24.1825 20.4821 24.2027 20.4618L27.3211 17.3222C27.3409 17.3023 27.3463 17.2724 27.3349 17.2469ZM27.1013 17.3501L24.139 20.3325L21.4607 19.1154C21.4267 19.1 21.3866 19.1145 21.3705 19.148L20.3268 21.3224L19.667 17.6787L27.1013 17.3501Z" fill="#CD6116"/>
<path d="M27.2725 17.2745L24.0446 23.5265L24.1541 20.4141L27.2725 17.2745Z" fill="#E4751F"/>
<path fill-rule="evenodd" clip-rule="evenodd" d="M27.3125 17.2194C27.2852 17.1998 27.2475 17.2029 27.2238 17.2267L24.1054 20.3663C24.0933 20.3785 24.0863 20.3947 24.0857 20.4117L23.9763 23.5241C23.9751 23.5559 23.9964 23.5842 24.0274 23.5922C24.0584 23.6002 24.0908 23.5858 24.1055 23.5575L27.3333 17.3055C27.3487 17.2757 27.3399 17.2391 27.3125 17.2194ZM27.0084 17.6371L24.1236 23.2245L24.2214 20.4429L27.0084 17.6371Z" fill="#E4751F"/>
<path d="M10.832 20.4141L10.9551 23.5265L7.72726 17.2745L10.832 20.4141Z" fill="#E4751F"/>
<path fill-rule="evenodd" clip-rule="evenodd" d="M7.6872 17.2194C7.6598 17.239 7.65096 17.2756 7.66638 17.3055L10.8942 23.5575C10.9089 23.5859 10.9414 23.6003 10.9724 23.5922C11.0034 23.5841 11.0246 23.5557 11.0234 23.5238L10.9003 20.4114C10.8996 20.3945 10.8927 20.3785 10.8807 20.3664L7.77601 17.2269C7.75232 17.2029 7.71459 17.1997 7.6872 17.2194ZM10.7647 20.443L10.8746 23.2217L7.99279 17.64L10.7647 20.443Z" fill="#E4751F"/>
<path d="M19.5857 17.6143L20.2969 21.5421L19.3942 26.1768L19.2027 20.0743L19.5857 17.6143Z" fill="#E4751F"/>
<path fill-rule="evenodd" clip-rule="evenodd" d="M19.5848 17.5463C19.5514 17.5467 19.5232 17.5711 19.5181 17.6039L19.1351 20.0639C19.1344 20.068 19.1342 20.0722 19.1343 20.0764L19.3258 26.1789C19.3269 26.2135 19.354 26.2417 19.3887 26.2445C19.4234 26.2473 19.4547 26.2237 19.4613 26.1897L20.364 21.5551C20.3656 21.5468 20.3656 21.5384 20.3642 21.5301L19.6529 17.6022C19.647 17.5696 19.6182 17.5459 19.5848 17.5463ZM20.2273 21.5417L19.4434 25.5662L19.2712 20.0785L19.5907 18.0261L20.2273 21.5417Z" fill="#E4751F"/>
<path d="M15.4139 17.6143L15.7832 20.0607L15.6054 26.1768L14.7027 21.5421L15.4139 17.6143Z" fill="#E4751F"/>
<path fill-rule="evenodd" clip-rule="evenodd" d="M15.4149 17.5463C15.3814 17.5458 15.3525 17.5695 15.3466 17.6022L14.6354 21.5301C14.6339 21.5384 14.6339 21.5468 14.6355 21.5551L15.5382 26.1897C15.5449 26.2237 15.5762 26.2473 15.6109 26.2445C15.6457 26.2417 15.6727 26.2134 15.6737 26.1787L15.8515 20.0627C15.8517 20.0586 15.8514 20.0546 15.8508 20.0506L15.4815 17.6042C15.4766 17.5713 15.4484 17.5468 15.4149 17.5463ZM15.4078 18.0318L15.7146 20.0648L15.5549 25.56L14.7722 21.5417L15.4078 18.0318Z" fill="#E4751F"/>
<path d="M14.7028 21.5421L15.6055 26.1768L14.949 26.6253L10.9552 23.5265L10.8321 20.4141L14.7028 21.5421Z" fill="#F6851B"/>
<path fill-rule="evenodd" clip-rule="evenodd" d="M10.79 20.3605C10.7727 20.3739 10.7629 20.3949 10.7638 20.4167L10.8869 23.5291C10.8876 23.5491 10.8972 23.5677 10.9131 23.58L14.9068 26.6788C14.9304 26.6971 14.9631 26.6981 14.9877 26.6813L15.6442 26.2328C15.6666 26.2174 15.6777 26.1904 15.6726 26.1639L14.7699 21.5292C14.765 21.5043 14.7465 21.4841 14.722 21.4769L10.8513 20.3489C10.8302 20.3427 10.8074 20.347 10.79 20.3605ZM14.6435 21.5957L15.5298 26.146L14.9515 26.5411L11.0223 23.4923L10.9042 20.5059L14.6435 21.5957Z" fill="#F6851B"/>
<path d="M24.1543 20.4141L24.0449 23.5265L20.0511 26.6253L19.3946 26.1768L20.2973 21.5421L24.1543 20.4141Z" fill="#F6851B"/>
<path fill-rule="evenodd" clip-rule="evenodd" d="M24.1962 20.3604C24.1788 20.347 24.156 20.3427 24.135 20.3489L20.278 21.477C20.2535 21.4841 20.235 21.5043 20.2302 21.5292L19.3275 26.1639C19.3223 26.1904 19.3334 26.2174 19.3559 26.2328L20.0124 26.6813C20.037 26.6981 20.0697 26.6971 20.0932 26.6788L24.0869 23.58C24.1029 23.5677 24.1125 23.5489 24.1132 23.5288L24.2226 20.4164C24.2234 20.3946 24.2135 20.3738 24.1962 20.3604ZM24.0826 20.5059L23.9776 23.4924L20.0485 26.5411L19.4702 26.146L20.3565 21.5957L24.0826 20.5059Z" fill="#F6851B"/>
<path d="M14.6211 30.8929L14.58 29.6289L14.922 29.3299H20.0783L20.4065 29.6289L20.3792 30.8929L24.6875 28.8678L23.183 30.091L20.1193 32.1977H14.8809L11.8172 30.091L10.3127 28.8678L14.6211 30.8929Z" fill="#C0AD9E"/>
<path fill-rule="evenodd" clip-rule="evenodd" d="M24.7453 28.8315C24.7268 28.8025 24.6895 28.7917 24.6582 28.8064L20.4499 30.7845L20.4749 29.6304C20.4753 29.6108 20.4672 29.592 20.4527 29.5788L20.1245 29.2798C20.1118 29.2683 20.0954 29.2619 20.0782 29.2619H14.9219C14.9053 29.2619 14.8892 29.268 14.8768 29.2789L14.5348 29.5779C14.5195 29.5913 14.511 29.6108 14.5117 29.6311L14.5491 30.7839L10.342 28.8064C10.3107 28.7917 10.2734 28.8025 10.2549 28.8315C10.2364 28.8605 10.2427 28.8987 10.2694 28.9204L11.7739 30.1436C11.7753 30.1448 11.7768 30.1459 11.7783 30.1469L14.842 32.2535C14.8534 32.2614 14.867 32.2656 14.8809 32.2656H20.1193C20.1332 32.2656 20.1468 32.2614 20.1582 32.2535L23.2219 30.1469C23.2234 30.1459 23.2249 30.1448 23.2263 30.1436L24.7308 28.9204C24.7575 28.8987 24.7637 28.8605 24.7453 28.8315ZM24.2123 29.1663L23.1418 30.0367L20.0979 32.1297H14.9023L11.8584 30.0367L10.7879 29.1663L14.5918 30.9543C14.6133 30.9644 14.6386 30.9627 14.6586 30.9497C14.6785 30.9367 14.6902 30.9144 14.6894 30.8907L14.6494 29.6588L14.9477 29.3979H20.0516L20.3375 29.6582L20.3108 30.8914C20.3103 30.915 20.3221 30.9371 20.3419 30.9499C20.3618 30.9627 20.387 30.9644 20.4084 30.9543L24.2123 29.1663Z" fill="#C0AD9E"/>
<path d="M14.949 26.6253L15.6055 26.1767H19.3941L20.0506 26.6253L20.4062 29.6289L20.078 29.3299H14.9217L14.5798 29.6289L14.949 26.6253Z" fill="#161616"/>
<path fill-rule="evenodd" clip-rule="evenodd" d="M19.4338 26.1208C19.4224 26.113 19.4089 26.1088 19.3951 26.1088H15.6065C15.5927 26.1088 15.5792 26.113 15.5678 26.1208L14.9112 26.5693C14.8951 26.5803 14.8845 26.5977 14.8821 26.617L14.5128 29.6207C14.5094 29.6487 14.5237 29.6759 14.5488 29.689C14.5739 29.7022 14.6046 29.6986 14.6259 29.6799L14.9484 29.3979H20.0523L20.361 29.679C20.3821 29.6982 20.4129 29.7024 20.4384 29.6894C20.4638 29.6765 20.4785 29.6492 20.4751 29.621L20.1195 26.6173C20.1172 26.5979 20.1066 26.5804 20.0903 26.5693L19.4338 26.1208ZM19.3738 26.2447L19.9873 26.6638L20.3178 29.4553L20.1252 29.2798C20.1125 29.2683 20.0961 29.262 20.0789 29.262H14.9226C14.906 29.262 14.8899 29.268 14.8775 29.2789L14.6704 29.46L15.0141 26.6639L15.6277 26.2447H19.3738Z" fill="#161616"/>
<path d="M1.21729 10.7643L0.0684071 5.21905L1.79173 0.0679626L14.9492 9.77211L9.88865 14.0262L2.73546 16.1056L1.16258 14.2708L1.84645 13.7815L0.752268 12.7894L1.58658 12.137L0.492399 11.3079L1.21729 10.7643Z" fill="#763D16"/>
<path fill-rule="evenodd" clip-rule="evenodd" d="M1.77113 0.00315069C1.75021 0.00970913 1.73373 0.0258376 1.72681 0.0465182L0.00348663 5.1976C-0.000303268 5.20893 -0.00102329 5.22105 0.00139809 5.23274L1.14157 10.7359L0.451177 11.2537C0.434101 11.2665 0.42404 11.2865 0.423986 11.3078C0.423934 11.329 0.433895 11.3491 0.450908 11.362L1.47488 12.1378L0.709951 12.736C0.69416 12.7483 0.684633 12.7669 0.683901 12.7869C0.683167 12.8068 0.691302 12.8261 0.706144 12.8396L1.73809 13.7753L1.1226 14.2157C1.10709 14.2268 1.09697 14.2438 1.09467 14.2626C1.09237 14.2815 1.09811 14.3004 1.1105 14.3149L2.68338 16.1497C2.70086 16.1701 2.72877 16.1784 2.75464 16.1709L9.90782 14.0914C9.91699 14.0887 9.9255 14.0842 9.93279 14.0781L14.9934 9.82399C15.0093 9.81059 15.0182 9.79069 15.0175 9.76995C15.0169 9.74921 15.0067 9.72991 14.9899 9.71754L1.83247 0.0133883C1.81485 0.000399633 1.79204 -0.00340774 1.77113 0.00315069ZM14.8392 9.77559L9.85552 13.965L2.75876 16.028L1.26273 14.2829L1.88638 13.8367C1.9031 13.8247 1.9135 13.8059 1.91469 13.7855C1.91588 13.765 1.90773 13.7451 1.89251 13.7313L0.857924 12.7932L1.62884 12.1904C1.64546 12.1774 1.6551 12.1575 1.65493 12.1365C1.65477 12.1155 1.64483 12.0957 1.62801 12.0829L0.605523 11.3082L1.25846 10.8185C1.27953 10.8027 1.28957 10.7763 1.28425 10.7506L0.13906 5.22319L1.8268 0.178469L14.8392 9.77559Z" fill="#763D16"/>
<path d="M34.9316 5.21905L33.7691 10.7643L34.5076 11.3079L33.4135 12.137L34.2478 12.7894L33.1536 13.7815L33.8375 14.2708L32.2646 16.1056L25.1114 14.0262L20.0508 9.77211L33.2083 0.0679626L34.9316 5.21905Z" fill="#763D16"/>
<path fill-rule="evenodd" clip-rule="evenodd" d="M33.2289 0.00315069C33.2079 -0.00340774 33.1851 0.000399633 33.1675 0.0133883L20.01 9.71754C19.9933 9.72991 19.9831 9.74921 19.9824 9.76995C19.9818 9.79069 19.9907 9.81059 20.0066 9.82399L25.0672 14.0781C25.0745 14.0842 25.083 14.0887 25.0922 14.0914L32.2454 16.1709C32.2712 16.1784 32.2991 16.1701 32.3166 16.1497L33.8895 14.3149C33.9019 14.3004 33.9076 14.2815 33.9053 14.2626C33.903 14.2438 33.8929 14.2268 33.8774 14.2157L33.2619 13.7753L34.2938 12.8396C34.3087 12.8261 34.3168 12.8068 34.3161 12.7869C34.3154 12.7669 34.3058 12.7483 34.29 12.736L33.5251 12.1378L34.5491 11.362C34.5662 11.349 34.5762 11.3288 34.576 11.3074C34.5759 11.2861 34.5656 11.266 34.5483 11.2533L33.8449 10.7356L34.9986 5.2329C35.001 5.22116 35.0003 5.20898 34.9965 5.1976L33.2732 0.0465182C33.2663 0.0258376 33.2498 0.00970912 33.2289 0.00315069ZM33.1732 0.178468L34.8609 5.22311L33.7021 10.7504C33.6967 10.7764 33.7069 10.8031 33.7283 10.8189L34.3938 11.3087L33.372 12.0829C33.3552 12.0957 33.3452 12.1155 33.3451 12.1365C33.3449 12.1575 33.3545 12.1774 33.3712 12.1904L34.1421 12.7932L33.1075 13.7313C33.0923 13.7451 33.0841 13.765 33.0853 13.7855C33.0865 13.8059 33.0969 13.8247 33.1136 13.8367L33.7373 14.2829L32.2412 16.028L25.1445 13.965L20.1608 9.77559L33.1732 0.178468Z" fill="#763D16"/>
<path d="M2.73605 16.1056L9.88923 14.0262L7.72823 17.2745L10.9561 23.5265L6.68876 23.4721H0.342536L2.73605 16.1056Z" fill="#F6851B"/>
<path fill-rule="evenodd" clip-rule="evenodd" d="M9.94326 13.9858C9.92622 13.9629 9.89657 13.9529 9.86903 13.9609L2.71584 16.0404C2.6941 16.0467 2.67692 16.0633 2.66996 16.0847L0.276447 23.4512C0.269728 23.4719 0.273367 23.4945 0.286237 23.5121C0.299108 23.5296 0.319656 23.54 0.341525 23.54H6.68776L10.9542 23.5944C10.9782 23.5947 11.0005 23.5825 11.0132 23.5623C11.0258 23.542 11.0268 23.5166 11.0159 23.4954L7.80632 17.2788L9.94527 14.0636C9.9611 14.0399 9.9603 14.0088 9.94326 13.9858ZM9.72819 14.1435L7.67018 17.237C7.65656 17.2575 7.65511 17.2837 7.66638 17.3055L10.8424 23.4571L6.68776 23.4041L0.435469 23.4041L2.78899 16.1607L9.72819 14.1435Z" fill="#F6851B"/>
<path d="M25.1115 14.0262L32.2647 16.1056L34.6445 23.4721H28.2983L24.0447 23.5265L27.2725 17.2745L25.1115 14.0262Z" fill="#F6851B"/>
<path fill-rule="evenodd" clip-rule="evenodd" d="M25.0565 13.9858C25.0394 14.0088 25.0386 14.0399 25.0544 14.0636L27.1934 17.2788L23.9838 23.4954C23.9729 23.5166 23.9739 23.542 23.9865 23.5623C23.9992 23.5825 24.0216 23.5947 24.0455 23.5944L28.2983 23.54H34.6445C34.6664 23.54 34.6869 23.5297 34.6998 23.5121C34.7126 23.4946 34.7163 23.472 34.7096 23.4513L32.3298 16.0849C32.3228 16.0634 32.3056 16.0467 32.2839 16.0404L25.1307 13.9609C25.1031 13.9529 25.0735 13.9629 25.0565 13.9858ZM32.2106 16.1607L34.5507 23.4041H28.2974L24.1574 23.4571L27.3333 17.3055C27.3446 17.2837 27.3432 17.2575 27.3295 17.237L25.2715 14.1435L32.2106 16.1607Z" fill="#F6851B"/>
<path d="M15.4134 17.6143L14.9484 9.77212L12.8831 4.18611H22.1152L20.05 9.77212L19.5849 17.6143L19.4071 20.0879L19.3935 26.1768H15.6049L15.5912 20.0879L15.4134 17.6143Z" fill="#F6851B"/>
<path fill-rule="evenodd" clip-rule="evenodd" d="M22.1723 4.14721C22.1595 4.129 22.1385 4.11815 22.1162 4.11815H12.8841C12.8617 4.11815 12.8408 4.129 12.828 4.14721C12.8152 4.16542 12.8122 4.18869 12.8199 4.20954L14.8817 9.78612L15.3461 17.6183L15.3461 17.6191L15.5238 20.0904L15.5374 26.1769C15.5375 26.2144 15.5681 26.2447 15.6058 26.2447H19.3944C19.4321 26.2447 19.4627 26.2144 19.4628 26.1769L19.4765 20.0904L19.6541 17.6191L19.6542 17.6183L20.1186 9.78612L22.1804 4.20954C22.1881 4.18869 22.1851 4.16542 22.1723 4.14721ZM22.0182 4.25406L19.9867 9.74867C19.9844 9.75492 19.9831 9.76147 19.9827 9.76811L19.5177 17.6094L19.5176 17.6103L19.3399 20.083C19.3398 20.0846 19.3397 20.0861 19.3397 20.0877L19.3262 26.1088H15.6741L15.6605 20.0877C15.6605 20.0861 15.6605 20.0846 15.6604 20.083L15.4826 17.6103L15.4826 17.6094L15.0176 9.76811C15.0172 9.76147 15.0158 9.75492 15.0135 9.74867L12.982 4.25406H22.0182Z" fill="#F6851B"/>
</g>
<defs>
<clipPath id="clip0">
<rect width="35" height="32.2656" fill="white" transform="matrix(-1 0 0 1 35 0)"/>
</clipPath>
</defs>
</svg>
