<svg width="31" height="35" viewBox="0 0 31 35" fill="none" xmlns="http://www.w3.org/2000/svg">
<path d="M14.9702 34.9852C14.6123 34.9852 14.2545 34.8668 13.8966 34.6299C11.9284 33.2085 10.2584 32.3202 8.7674 31.5503C2.20676 27.997 0.298211 26.0427 0 5.96658C0 5.49281 0.178926 5.01904 0.536779 4.66371C0.894632 4.30838 1.31213 4.13071 1.78926 4.13071H2.08748C4.05567 4.13071 9.24453 4.18993 13.837 0.399746C14.493 -0.133249 15.507 -0.133249 16.163 0.399746C20.6958 4.18993 25.9443 4.13071 27.9125 4.13071H28.2107C28.6879 4.13071 29.165 4.30838 29.5229 4.66371C29.8807 5.01904 30.0596 5.49281 30.0596 5.96658C29.7018 26.0427 27.7932 27.997 21.173 31.5503C19.6819 32.3202 18.0119 33.2678 16.0437 34.6299C15.7455 34.8668 15.3877 34.9852 14.9702 34.9852ZM3.63817 7.68401C3.99602 24.8583 5.60636 25.7466 10.5567 28.3524C11.8091 29.0038 13.3002 29.8329 15.0298 30.9581C16.7594 29.8329 18.2505 29.0038 19.503 28.3524C24.4533 25.6874 26.0636 24.7991 26.4215 7.68401C23.7972 7.56557 19.3241 7.03257 15.0298 4.01227C10.7356 7.03257 6.26242 7.62479 3.63817 7.68401Z" fill="#3375BB"/>
</svg>
